<svg width="210" height="67" viewBox="0 0 210 67" fill="none" xmlns="http://www.w3.org/2000/svg">
<path d="M96.7781 19.7285C96.7781 24.6694 92.8323 27.5159 86.1094 27.5159C84.0382 27.5159 79.8031 27.3655 76.9219 27.1457V0.578125H94.0473V5.16033H82.9042V11.2468C83.9803 11.2121 85.0449 11.1774 86.121 11.1774C92.8323 11.1774 96.7897 14.3132 96.7897 19.7401L96.7781 19.7285ZM90.5759 19.3235C90.5759 17.0671 88.956 15.748 86.1441 15.748C85.0796 15.748 83.9688 15.7827 82.8926 15.8174V22.8643C84.1076 22.899 85.2532 22.9337 86.1441 22.9337C88.9444 22.9337 90.5759 21.5683 90.5759 19.3119V19.3235Z" fill="white"/>
<path d="M136.491 22.5754H133.794V8.11133H120.187C120.279 9.63873 120.21 11.1661 120.048 12.5315C119.631 16.0492 118.648 19.6363 116.565 22.5638C115.431 22.5638 114.459 22.6101 114.459 22.6101V31.2191C114.459 31.2191 117.421 31.4158 119.631 31.4968L119.909 26.7989H131.052L131.33 31.4968C133.528 31.4158 136.502 31.2191 136.502 31.2191V22.5869L136.491 22.5754ZM128.078 22.5754H121.969C122.455 21.6728 122.883 20.7355 123.276 19.7983C123.762 18.6064 124.202 17.2642 124.514 15.8641C124.746 14.6954 124.885 13.5035 124.989 12.3464H128.09V22.5638L128.078 22.5754Z" fill="white"/>
<path d="M146.604 14.1978C146.048 14.1978 145.493 14.1978 144.938 14.2325V8.11133C142.785 8.11133 139.221 8.38904 139.221 8.38904V27.1576C141.362 27.3774 144.162 27.5279 146.72 27.5279C152.216 27.5279 155.467 25.0516 155.467 20.886C155.467 16.7203 152.216 14.2094 146.604 14.2094V14.1978ZM146.72 23.6052H144.949V18.1783C145.505 18.1436 146.06 18.1436 146.615 18.1436C148.606 18.1436 149.786 19.1734 149.786 20.8744C149.786 22.5754 148.64 23.6052 146.72 23.6052Z" fill="white"/>
<path d="M110.247 8.04102L107.771 16.7889L105.942 22.6208C105.942 22.6208 104.739 17.6799 104.022 15.0879C103.42 12.9356 102.795 10.3321 102.112 8.21458C100.446 7.90216 98.479 8.05259 96.3036 8.70058L101.927 26.636L104.01 26.9484C103.802 27.7121 103.42 28.9155 102.957 29.6445C102.471 30.3851 101.823 31.0215 101.117 31.5306C100.527 31.9356 99.9255 32.1902 99.3585 32.2827L101.684 35.9393C104.346 35.569 107.042 32.9076 108.407 29.0775L115.639 8.88572L110.247 8.04102Z" fill="white"/>
<path d="M83.1472 38.8555C87.3128 38.8555 89.7891 40.6606 89.7891 43.8774C89.7891 45.7982 88.4931 47.3487 86.283 47.9389C89.1989 48.3786 90.8999 50.1143 90.8999 52.6252C90.8999 56.166 87.7988 58.272 82.557 58.272C80.0461 58.272 77.4657 57.5314 75.1052 55.5412L77.0954 52.255C78.5765 53.5509 80.4164 53.9906 82.0016 53.9906C83.9572 53.9906 85.1027 53.2501 85.1027 52.0351C85.1027 50.8201 84.1076 50.0796 82.4413 50.0796H79.861V46.504H81.7818C83.1472 46.504 83.9919 45.9139 83.9919 44.8378C83.9919 43.7617 83.1472 43.1368 81.6314 43.1368C80.6015 43.1368 78.9352 43.3914 77.6046 44.2477L76.1234 40.7416C78.4145 39.4109 80.9602 38.8555 83.1356 38.8555H83.1472Z" fill="white"/>
<path d="M116.114 48.5637C116.114 42.4773 119.77 38.8555 126.042 38.8555C132.313 38.8555 136.005 42.4773 136.005 48.5637C136.005 54.6502 132.313 58.272 126.042 58.272C119.77 58.272 116.114 54.6502 116.114 48.5637ZM130.207 48.5637C130.207 45.3122 128.657 43.3567 126.076 43.3567C123.496 43.3567 121.946 45.3122 121.946 48.5637C121.946 51.8152 123.496 53.7361 126.076 53.7361C128.657 53.7361 130.207 51.8152 130.207 48.5637Z" fill="white"/>
<path d="M159.448 48.5637C159.448 42.4773 163.104 38.8555 169.376 38.8555C175.648 38.8555 179.339 42.4773 179.339 48.5637C179.339 54.6502 175.648 58.272 169.376 58.272C163.104 58.272 159.448 54.6502 159.448 48.5637ZM173.542 48.5637C173.542 45.3122 171.991 43.3567 169.411 43.3567C166.83 43.3567 165.28 45.3122 165.28 48.5637C165.28 51.8152 166.83 53.7361 169.411 53.7361C171.991 53.7361 173.542 51.8152 173.542 48.5637Z" fill="white"/>
<path d="M198.64 52.4401C198.64 56.0966 195.539 58.272 190.262 58.272C186.687 58.272 183.956 58.1216 181.919 57.9017V39.2257C183.84 39.0059 186.455 38.8555 189.776 38.8555C194.948 38.8555 197.934 40.9267 197.934 44.4675C197.934 46.1685 197.008 47.4529 195.272 48.3092C197.448 49.0844 198.628 50.5193 198.628 52.4401H198.64ZM187.601 42.9864V47.0132H189.857C191.442 47.0132 192.368 46.2032 192.368 44.9882C192.368 43.7732 191.442 42.998 189.857 42.998H187.601V42.9864ZM192.993 51.9194C192.993 50.5887 191.963 49.7787 190.331 49.7787H187.601V54.0948C188.445 54.1295 189.336 54.1295 190.331 54.1295C191.951 54.1295 192.993 53.2848 192.993 51.9194Z" fill="white"/>
<path d="M114.864 53.3195H112.168V38.8555H98.56C98.6526 40.3829 98.5832 41.9103 98.4212 43.2757C98.0046 46.7933 97.0211 50.3804 94.9382 53.3079C93.8043 53.3079 92.8901 53.3311 92.8323 53.3542V61.9632C92.8323 61.9632 95.7945 62.1599 98.0046 62.2409L98.2823 57.543H109.425L109.703 62.2409C111.902 62.1599 114.875 61.9632 114.875 61.9632V53.3311L114.864 53.3195ZM106.452 53.3195H100.342C100.828 52.417 101.256 51.4797 101.65 50.5424C102.136 49.3506 102.575 48.0083 102.888 46.6082C103.119 45.4395 103.258 44.2477 103.362 43.0905H106.463V53.3079L106.452 53.3195Z" fill="white"/>
<path d="M150.26 38.9364C148.097 38.9364 145.933 39.6191 144.359 41.644V39.3182C142.207 39.3182 138.643 39.5959 138.643 39.5959V65.9899C138.643 65.9899 141.998 66.1982 144.359 66.2792V58.2719C145.424 58.3066 146.43 58.3413 147.125 58.3413C153.581 58.3413 157.423 54.5344 157.423 48.0429C157.423 42.3267 154.576 38.9248 150.26 38.9248V38.9364ZM146.569 54.1063C145.944 54.1063 145.204 54.1063 144.359 54.0715V45.8444C144.359 45.8444 144.59 45.5204 145.042 45.1154C145.852 44.4096 146.997 44.0393 147.784 43.9236C150.075 43.6227 151.082 45.2658 151.255 45.6708C151.498 46.342 151.626 47.1404 151.626 48.0545C151.626 51.8962 149.705 54.1063 146.569 54.1063Z" fill="white"/>
<path d="M206.671 58.714C208.413 58.1026 209.331 56.1943 208.719 54.4515C208.108 52.7087 206.2 51.7915 204.457 52.4028C202.714 53.0142 201.797 54.9226 202.408 56.6653C203.019 58.4081 204.928 59.3253 206.671 58.714Z" fill="white"/>
<path d="M202.933 49.6745H208.255L208.429 32.9194C206.867 32.8037 204.553 32.7227 203.43 32.7227C203.199 32.7227 202.979 32.7342 202.747 32.7458L202.933 49.6745Z" fill="white"/>
<path d="M56.892 1.75874C49.1856 -1.75892 39.7898 1.31903 33.4256 9.41889C27.0151 1.36532 17.5961 -1.66635 9.91285 1.89759C0.412869 6.30623 -2.82706 19.59 2.69241 31.4968C7.27462 41.3786 16.2307 49.7099 23.0809 54.2111C26.7259 56.6642 30.1278 58.1801 32.6503 58.4809C32.9859 58.5272 33.333 58.5388 33.6686 58.5388C36.6424 58.4925 41.0047 56.4907 45.6448 53.0309C53.7794 47.1758 60.7453 39.0528 64.286 31.3117C69.7361 19.3701 66.4267 6.10952 56.892 1.75874Z" fill="white"/>
<path d="M33.576 17.1485C28.9591 7.20881 19.112 1.97861 11.5791 5.47313C4.04622 8.96764 1.67413 19.8677 6.29105 29.8074C13.1065 44.4913 30.9378 55.9815 34.2934 54.4194C37.6491 52.8573 40.403 31.8324 33.5876 17.1485H33.576Z" fill="#E1251B"/>
<path d="M60.6874 29.6458C65.2465 19.6714 62.8049 8.79442 55.2489 5.33463C47.6929 1.8864 37.8689 7.17445 33.3214 17.1373C26.5986 31.8675 29.4682 52.8808 32.8354 54.4198C36.2027 55.9588 53.9645 44.3644 60.6874 29.6458Z" fill="#61A60E"/>
</svg>
