<svg width="1883" height="193" viewBox="0 0 1883 193" fill="none" xmlns="http://www.w3.org/2000/svg">
<g opacity="0.62">
<path d="M0.362305 180.606C0.120768 180.606 0 180.444 0 180.119V126.028C0 125.703 0.120768 125.514 0.362305 125.514H2.57064C2.81218 125.514 2.93295 125.676 2.93295 126.028V152.681C2.93295 154.305 2.9157 156.091 2.89844 158.066C2.88119 160.041 2.82943 162.044 2.76042 164.127C2.69141 166.211 2.63965 168.213 2.6224 170.134C2.60515 172.056 2.57064 173.869 2.51889 175.546H2.65691C3.278 173.246 3.9336 170.811 4.64096 168.267C5.34832 165.724 6.07293 163.099 6.81479 160.447C7.55666 157.795 8.29852 155.225 9.05764 152.762L16.9421 125.838C17.0284 125.622 17.1836 125.514 17.3734 125.514H20.2201C20.4616 125.514 20.5824 125.676 20.5824 126.028V180.092C20.5824 180.417 20.4616 180.606 20.2201 180.606H18.0118C17.7702 180.606 17.6495 180.444 17.6495 180.092L17.7875 154.521C17.7875 152.735 17.8047 150.814 17.822 148.758C17.8392 146.701 17.8737 144.618 17.9255 142.48C17.9773 140.342 18.0118 138.286 18.0635 136.256C18.1153 134.227 18.1498 132.333 18.2015 130.547H18.0635C17.4079 132.955 16.6833 135.499 15.9242 138.204C15.1651 140.883 14.3887 143.616 13.6123 146.349C12.836 149.109 12.0423 151.815 11.2315 154.494L3.62305 180.282C3.5713 180.498 3.43328 180.606 3.19174 180.606H0.362305Z" fill="white"/>
<path d="M28.7084 180.606C28.4669 180.606 28.3461 180.444 28.3461 180.092L28.9845 126.028C28.9845 125.703 29.1225 125.514 29.4158 125.514H32.9008C33.1424 125.514 33.2804 125.649 33.3321 125.947L41.8549 162.531L50.3778 125.947C50.4295 125.676 50.5848 125.514 50.8781 125.514H54.2941C54.5356 125.514 54.6564 125.676 54.6564 126.028L55.2948 180.092C55.2948 180.417 55.174 180.606 54.9325 180.606H52.7931C52.5171 180.606 52.3618 180.444 52.3618 180.092L52.034 141.262C51.9822 139.639 51.9822 137.88 51.9995 136.013C52.0168 134.146 52.034 132.333 52.034 130.601H51.965C51.6372 132.278 51.2576 133.983 50.8263 135.688C50.395 137.393 49.9982 139.07 49.6186 140.694L42.3725 170.973C42.3208 171.244 42.1827 171.406 41.9412 171.406H41.7342C41.4926 171.406 41.3546 171.271 41.3029 170.973L33.9705 140.423C33.5909 138.8 33.2114 137.149 32.8318 135.499C32.4523 133.848 32.09 132.197 31.7622 130.574H31.6241C31.6759 132.251 31.6931 133.983 31.6931 135.796C31.6931 137.582 31.6931 139.314 31.6931 140.937L31.2618 180.119C31.2618 180.444 31.1411 180.633 30.8995 180.633H28.7084V180.606Z" fill="white"/>
<path d="M63.5414 180.606C63.2999 180.606 63.1791 180.444 63.1791 180.092V126.028C63.1791 125.703 63.2999 125.514 63.5414 125.514H78.9653C79.2068 125.514 79.3276 125.676 79.3276 126.028V128.382C79.3276 128.707 79.2068 128.896 78.9653 128.896H66.0948V150.841H77.9647C78.2062 150.841 78.327 151.004 78.327 151.355V153.547C78.327 153.872 78.2062 154.061 77.9647 154.061H66.0948V177.278H78.9653C79.2068 177.278 79.3276 177.44 79.3276 177.792V180.146C79.3276 180.471 79.2068 180.661 78.9653 180.661H63.5414V180.606Z" fill="white"/>
<path d="M86.936 180.607C86.7462 180.607 86.66 180.445 86.66 180.093V126.029C86.66 125.704 86.7462 125.514 86.936 125.514H89.2134C89.4549 125.514 89.5757 125.677 89.5757 126.029V150.409H97.9605V153.764H89.5757V180.093C89.5757 180.418 89.4549 180.607 89.2134 180.607H86.936ZM106.828 181.121C103.602 181.121 101.118 179.822 99.3579 177.252C97.5981 174.681 96.7355 170.676 96.7355 165.237V140.992C96.7355 135.499 97.6154 131.467 99.3579 128.87C101.118 126.326 103.602 125.027 106.828 125.027C110.055 125.027 112.522 126.326 114.264 128.897C115.989 131.467 116.852 135.499 116.852 141.019V165.237C116.852 170.73 115.989 174.762 114.264 177.306C112.522 179.849 110.055 181.121 106.828 181.121ZM106.828 177.766C109.106 177.766 110.848 176.792 112.09 174.816C113.315 172.841 113.936 169.567 113.936 164.967V141.155C113.936 136.609 113.315 133.335 112.09 131.359C110.865 129.384 109.106 128.383 106.828 128.383C104.499 128.383 102.722 129.384 101.497 131.359C100.272 133.362 99.6512 136.609 99.6512 141.155V164.967C99.6512 169.513 100.272 172.787 101.497 174.762C102.739 176.765 104.516 177.766 106.828 177.766Z" fill="white"/>
<path d="M130.723 180.606C130.482 180.606 130.361 180.444 130.361 180.092V128.896H122.183C121.907 128.896 121.752 128.734 121.752 128.382V126.028C121.752 125.703 121.89 125.514 122.183 125.514H141.454C141.696 125.514 141.817 125.676 141.817 126.028V128.382C141.817 128.707 141.696 128.896 141.454 128.896H133.277V180.119C133.277 180.444 133.139 180.633 132.845 180.633H130.723V180.606Z" fill="white"/>
<path d="M157.292 181.121C153.825 181.121 151.202 179.768 149.408 177.089C147.614 174.411 146.699 170.379 146.699 165.075V141.101C146.699 135.77 147.596 131.765 149.408 129.086C151.202 126.38 153.842 125.027 157.292 125.027C159.76 125.027 161.795 125.731 163.4 127.138C165.004 128.545 166.16 130.547 166.85 133.145C167.541 135.743 167.748 138.936 167.454 142.697C167.403 142.968 167.282 143.13 167.092 143.13H164.884C164.608 143.13 164.487 142.968 164.521 142.616C164.763 137.853 164.297 134.282 163.141 131.927C161.985 129.573 160.018 128.383 157.275 128.383C154.756 128.383 152.859 129.438 151.547 131.549C150.236 133.659 149.598 136.906 149.598 141.344V164.805C149.598 169.188 150.253 172.435 151.547 174.546C152.859 176.684 154.756 177.739 157.275 177.739C160.07 177.739 162.054 176.521 163.21 174.086C164.366 171.65 164.849 168.133 164.659 163.533C164.608 163.208 164.728 163.019 165.022 163.019H167.075C167.351 163.019 167.506 163.181 167.506 163.533C167.748 169.242 167.006 173.599 165.298 176.602C163.59 179.606 160.95 181.121 157.292 181.121Z" fill="white"/>
<path d="M172.872 180.607C172.63 180.607 172.596 180.39 172.734 179.93L178.065 162.612C178.444 161.368 178.841 160.123 179.238 158.878C179.635 157.606 180.031 156.389 180.411 155.225V155.063C178.427 154.062 176.909 152.438 175.891 150.192C174.873 147.946 174.355 144.888 174.355 141.019C174.355 137.474 174.787 134.579 175.632 132.279C176.477 129.979 177.754 128.274 179.428 127.192C181.101 126.109 183.223 125.541 185.794 125.541H192.626C192.867 125.541 192.988 125.703 192.988 126.055V180.12C192.988 180.444 192.867 180.634 192.626 180.634H190.418C190.176 180.634 190.055 180.471 190.055 180.12V155.902H183.154L175.684 180.282C175.632 180.39 175.58 180.471 175.546 180.525C175.494 180.58 175.408 180.607 175.27 180.607H172.872ZM184.741 152.871H190.072V128.896H185.587C182.74 128.896 180.653 129.871 179.29 131.792C177.944 133.713 177.271 136.798 177.271 140.992C177.271 144.97 177.892 147.946 179.117 149.894C180.359 151.87 182.223 152.871 184.741 152.871Z" fill="white"/>
<path d="M211.535 180.606C211.293 180.606 211.172 180.444 211.172 180.092V126.028C211.172 125.703 211.259 125.514 211.448 125.514H231.427C231.617 125.514 231.703 125.676 231.703 126.028V180.092C231.703 180.417 231.582 180.606 231.341 180.606H229.132C228.891 180.606 228.77 180.444 228.77 180.092V128.896H214.054V180.119C214.054 180.444 213.933 180.633 213.691 180.633H211.535V180.606Z" fill="white"/>
<path d="M240.467 180.606C240.226 180.606 240.105 180.444 240.105 180.092V126.028C240.105 125.703 240.226 125.514 240.467 125.514H246.506C250.301 125.514 253.148 126.813 255.029 129.41C256.926 132.008 257.875 136.202 257.875 141.993C257.875 147.323 256.995 151.382 255.253 154.142C253.493 156.93 250.681 158.31 246.799 158.31H243.038V180.092C243.038 180.417 242.917 180.606 242.676 180.606H240.467ZM243.021 154.954H246.506C249.628 154.954 251.82 153.872 253.079 151.707C254.338 149.542 254.96 146.349 254.96 142.074C254.96 137.366 254.252 133.983 252.855 131.9C251.457 129.816 249.404 128.788 246.713 128.788H243.021V154.954Z" fill="white"/>
<path d="M273.937 181.121C270.521 181.121 267.899 179.849 266.088 177.306C264.259 174.762 263.344 170.947 263.344 165.914V140.343C263.344 135.175 264.259 131.332 266.088 128.816C267.916 126.299 270.521 125.027 273.937 125.027C277.302 125.027 279.907 126.299 281.753 128.816C283.599 131.332 284.531 135.175 284.531 140.343V165.914C284.531 170.947 283.599 174.762 281.753 177.306C279.907 179.849 277.302 181.121 273.937 181.121ZM273.937 177.766C276.405 177.766 278.302 176.792 279.631 174.816C280.959 172.841 281.615 169.81 281.615 165.643V140.586C281.615 136.392 280.942 133.307 279.631 131.332C278.302 129.357 276.405 128.383 273.937 128.383C271.419 128.383 269.521 129.357 268.21 131.332C266.898 133.307 266.26 136.365 266.26 140.586V165.643C266.26 169.783 266.916 172.841 268.21 174.816C269.521 176.765 271.419 177.766 273.937 177.766Z" fill="white"/>
<path d="M298.384 180.606C298.143 180.606 298.022 180.444 298.022 180.092V128.896H289.844C289.568 128.896 289.413 128.734 289.413 128.382V126.028C289.413 125.703 289.551 125.514 289.844 125.514H309.116C309.357 125.514 309.478 125.676 309.478 126.028V128.382C309.478 128.707 309.357 128.896 309.116 128.896H300.938V180.119C300.938 180.444 300.8 180.633 300.507 180.633H298.384V180.606Z" fill="white"/>
<path d="M315.447 180.606C315.206 180.606 315.085 180.444 315.085 180.092V126.028C315.085 125.703 315.206 125.514 315.447 125.514H317.656C317.897 125.514 318.018 125.676 318.018 126.028V152.681C318.018 154.305 318.001 156.091 317.983 158.066C317.966 160.041 317.914 162.044 317.845 164.127C317.776 166.211 317.725 168.213 317.707 170.134C317.69 172.056 317.656 173.869 317.604 175.546H317.742C318.363 173.246 319.019 170.811 319.726 168.267C320.433 165.724 321.158 163.099 321.9 160.447C322.642 157.795 323.384 155.225 324.143 152.762L332.027 125.838C332.113 125.622 332.269 125.514 332.458 125.514H335.305C335.547 125.514 335.667 125.676 335.667 126.028V180.092C335.667 180.417 335.547 180.606 335.305 180.606H333.097C332.855 180.606 332.734 180.444 332.734 180.092L332.872 154.521C332.872 152.735 332.89 150.814 332.907 148.758C332.924 146.701 332.959 144.618 333.011 142.48C333.062 140.342 333.097 138.286 333.149 136.256C333.2 134.227 333.235 132.333 333.287 130.547H333.149C332.476 132.955 331.768 135.499 331.009 138.204C330.25 140.883 329.474 143.616 328.697 146.349C327.921 149.109 327.127 151.815 326.316 154.494L318.708 180.228C318.656 180.444 318.518 180.552 318.277 180.552H315.447V180.606Z" fill="white"/>
<path d="M344.449 180.606C344.173 180.606 344.018 180.444 344.018 180.092V126.028C344.018 125.703 344.156 125.514 344.449 125.514H351.057C354.663 125.514 357.302 126.623 358.976 128.842C360.649 131.061 361.495 134.443 361.495 138.989C361.495 142.074 361.046 144.726 360.149 146.945C359.252 149.163 357.941 150.733 356.233 151.707V151.869C358.372 152.6 359.994 154.115 361.098 156.415C362.219 158.715 362.771 161.665 362.771 165.237C362.771 170.351 361.857 174.193 360.028 176.764C358.199 179.335 355.439 180.633 351.747 180.633H344.449V180.606ZM346.933 150.516H351.833C353.972 150.516 355.629 149.515 356.802 147.54C357.992 145.565 358.579 142.859 358.579 139.422C358.579 135.715 357.992 133.036 356.802 131.386C355.611 129.735 353.765 128.896 351.264 128.896H346.933V150.516ZM346.933 177.251H351.626C354.473 177.251 356.56 176.277 357.889 174.356C359.217 172.434 359.873 169.296 359.873 164.966C359.873 161.259 359.217 158.472 357.923 156.605C356.612 154.738 354.697 153.791 352.126 153.791H346.933V177.251Z" fill="white"/>
<path d="M379.42 181.121C376.004 181.121 373.382 179.849 371.57 177.306C369.742 174.762 368.827 170.947 368.827 165.914V140.343C368.827 135.175 369.742 131.332 371.57 128.816C373.399 126.299 376.004 125.027 379.42 125.027C382.785 125.027 385.39 126.299 387.236 128.816C389.082 131.332 390.013 135.175 390.013 140.343V165.914C390.013 170.947 389.082 174.762 387.236 177.306C385.39 179.849 382.785 181.121 379.42 181.121ZM379.42 177.766C381.887 177.766 383.785 176.792 385.114 174.816C386.442 172.841 387.098 169.81 387.098 165.643V140.586C387.098 136.392 386.425 133.307 385.114 131.332C383.785 129.357 381.887 128.383 379.42 128.383C376.901 128.383 375.004 129.357 373.692 131.332C372.381 133.307 371.743 136.365 371.743 140.586V165.643C371.743 169.783 372.398 172.841 373.692 174.816C375.004 176.765 376.901 177.766 379.42 177.766Z" fill="white"/>
<path d="M398.036 180.606C397.794 180.606 397.673 180.444 397.673 180.092V126.028C397.673 125.703 397.76 125.514 397.95 125.514H417.928C418.118 125.514 418.204 125.676 418.204 126.028V180.092C418.204 180.417 418.083 180.606 417.842 180.606H415.633C415.392 180.606 415.271 180.444 415.271 180.092V128.896H400.555V180.119C400.555 180.444 400.434 180.633 400.192 180.633H398.036V180.606Z" fill="white"/>
<path d="M436.492 181.121C433.076 181.121 430.453 179.849 428.642 177.306C426.813 174.762 425.899 170.947 425.899 165.914V140.343C425.899 135.175 426.813 131.332 428.642 128.816C430.471 126.299 433.093 125.027 436.492 125.027C439.856 125.027 442.461 126.299 444.307 128.816C446.153 131.332 447.085 135.175 447.085 140.343V165.914C447.085 170.947 446.153 174.762 444.307 177.306C442.461 179.849 439.856 181.121 436.492 181.121ZM436.492 177.766C438.959 177.766 440.857 176.792 442.185 174.816C443.514 172.841 444.169 169.81 444.169 165.643V140.586C444.169 136.392 443.496 133.307 442.185 131.332C440.857 129.357 438.959 128.383 436.492 128.383C433.973 128.383 432.075 129.357 430.764 131.332C429.453 133.307 428.814 136.365 428.814 140.586V165.643C428.814 169.783 429.47 172.841 430.764 174.816C432.075 176.765 433.99 177.766 436.492 177.766Z" fill="white"/>
<path d="M455.125 180.606C454.883 180.606 454.762 180.444 454.762 180.092V126.028C454.762 125.703 454.883 125.514 455.125 125.514H457.333C457.574 125.514 457.695 125.676 457.695 126.028V150.598H462.25L471.342 125.865C471.394 125.703 471.446 125.595 471.515 125.568C471.584 125.541 471.653 125.514 471.687 125.514H474.034C474.172 125.514 474.275 125.568 474.31 125.676C474.361 125.784 474.327 125.947 474.241 126.19L464.717 151.924L475.31 179.93C475.448 180.39 475.362 180.606 475.034 180.606H472.619C472.515 180.606 472.446 180.606 472.412 180.552C472.36 180.525 472.291 180.417 472.205 180.255L462.319 153.926H457.695V180.092C457.695 180.417 457.574 180.606 457.333 180.606H455.125Z" fill="white"/>
<path d="M476.38 180.606C476.104 180.606 475.983 180.417 476.018 180.011L485.834 125.947C485.886 125.676 486.024 125.514 486.266 125.514H489.319C489.561 125.514 489.699 125.649 489.751 125.947L499.568 180.011C499.619 180.417 499.516 180.606 499.291 180.606H496.945C496.704 180.606 496.566 180.471 496.514 180.173L489.768 141.154C489.44 139.179 489.112 137.257 488.802 135.363C488.491 133.469 488.181 131.521 487.836 129.573H487.767C487.491 131.548 487.18 133.496 486.887 135.417C486.576 137.339 486.231 139.314 485.852 141.343L479.106 180.2C479.054 180.471 478.916 180.633 478.675 180.633H476.38V180.606ZM480.986 165.805L481.625 162.45H493.857L494.495 165.805H480.986Z" fill="white"/>
<path d="M511.489 181.121C509.263 181.121 507.417 180.58 505.985 179.524C504.536 178.469 503.501 176.873 502.863 174.762C502.224 172.651 501.966 170.027 502.121 166.888C502.121 166.671 502.155 166.536 502.224 166.455C502.293 166.374 502.38 166.374 502.466 166.374H504.743C504.933 166.374 505.019 166.536 505.019 166.888C504.881 170.595 505.347 173.328 506.399 175.087C507.469 176.846 509.177 177.739 511.558 177.739C514.111 177.739 515.957 176.791 517.096 174.87C518.235 172.976 518.804 169.891 518.804 165.616C518.804 161.638 518.183 158.743 516.924 156.903C515.664 155.09 513.697 154.17 510.989 154.17H507.642C507.4 154.17 507.279 154.008 507.279 153.656V151.356C507.279 151.031 507.4 150.842 507.642 150.842H510.695C513.059 150.842 514.853 149.786 516.061 147.676C517.269 145.565 517.873 142.534 517.873 138.557C517.873 135.012 517.355 132.441 516.303 130.818C515.267 129.194 513.646 128.382 511.472 128.382C509.194 128.382 507.555 129.248 506.572 130.953C505.571 132.658 505.157 135.418 505.295 139.233C505.295 139.558 505.192 139.747 505.019 139.747H502.742C502.604 139.747 502.5 139.693 502.466 139.612C502.414 139.531 502.397 139.396 502.397 139.233C502.207 134.471 502.88 130.899 504.415 128.545C505.951 126.191 508.366 125 511.627 125C514.664 125 516.941 126.109 518.494 128.355C520.029 130.601 520.805 133.875 520.805 138.205C520.805 141.75 520.34 144.699 519.391 147.107C518.442 149.516 517.062 151.193 515.267 152.14V152.222C517.493 152.898 519.132 154.332 520.167 156.497C521.202 158.689 521.737 161.692 521.737 165.508C521.737 170.838 520.909 174.762 519.253 177.279C517.579 179.849 514.991 181.121 511.489 181.121Z" fill="white"/>
<path d="M524.705 180.606C524.429 180.606 524.308 180.417 524.342 180.011L534.159 125.947C534.211 125.676 534.349 125.514 534.59 125.514H537.644C537.886 125.514 538.024 125.649 538.075 125.947L547.892 180.011C547.944 180.417 547.84 180.606 547.616 180.606H545.27C545.028 180.606 544.89 180.471 544.838 180.173L538.093 141.154C537.765 139.179 537.437 137.257 537.127 135.363C536.816 133.469 536.505 131.521 536.16 129.573H536.091C535.815 131.548 535.505 133.496 535.212 135.417C534.901 137.339 534.556 139.314 534.176 141.343L527.431 180.2C527.379 180.471 527.241 180.633 526.999 180.633H524.705V180.606ZM529.328 165.805L529.967 162.45H542.199L542.837 165.805H529.328Z" fill="white"/>
<path d="M552.568 180.606C552.326 180.606 552.205 180.444 552.205 180.092V126.028C552.205 125.703 552.326 125.514 552.568 125.514H554.776C555.017 125.514 555.138 125.676 555.138 126.028V150.408H569.924V126.028C569.924 125.703 570.045 125.514 570.286 125.514H572.494C572.736 125.514 572.857 125.676 572.857 126.028V180.092C572.857 180.417 572.736 180.606 572.494 180.606H570.286C570.045 180.606 569.924 180.444 569.924 180.092V153.764H555.138V180.092C555.138 180.417 555.017 180.606 554.776 180.606H552.568Z" fill="white"/>
<path d="M581.569 180.606C581.328 180.606 581.207 180.444 581.207 180.092V126.028C581.207 125.703 581.328 125.514 581.569 125.514H583.778C584.019 125.514 584.14 125.676 584.14 126.028V152.681C584.14 154.305 584.123 156.091 584.105 158.066C584.088 160.041 584.036 162.044 583.967 164.127C583.898 166.211 583.847 168.213 583.829 170.134C583.812 172.056 583.778 173.869 583.726 175.546H583.864C584.485 173.246 585.141 170.811 585.848 168.267C586.555 165.724 587.28 163.099 588.022 160.447C588.764 157.795 589.506 155.225 590.265 152.762L598.149 125.838C598.235 125.622 598.391 125.514 598.58 125.514H601.427C601.669 125.514 601.789 125.676 601.789 126.028V180.092C601.789 180.417 601.669 180.606 601.427 180.606H599.219C598.977 180.606 598.856 180.444 598.856 180.092L598.995 154.521C598.995 152.735 599.012 150.814 599.029 148.758C599.046 146.701 599.081 144.618 599.132 142.48C599.184 140.342 599.219 138.286 599.271 136.256C599.322 134.227 599.357 132.333 599.409 130.547H599.271C598.598 132.955 597.89 135.499 597.131 138.204C596.372 140.883 595.596 143.616 594.819 146.349C594.043 149.109 593.249 151.815 592.439 154.494L584.83 180.228C584.778 180.444 584.64 180.552 584.399 180.552H581.569V180.606Z" fill="white"/>
<path d="M607.793 180.607C607.552 180.607 607.517 180.39 607.655 179.93L612.986 162.612C613.366 161.368 613.763 160.123 614.16 158.878C614.556 157.606 614.953 156.389 615.333 155.225V155.063C613.349 154.062 611.83 152.438 610.813 150.192C609.795 147.946 609.277 144.888 609.277 141.019C609.277 137.474 609.708 134.579 610.554 132.279C611.399 129.979 612.676 128.274 614.349 127.192C616.023 126.109 618.145 125.541 620.716 125.541H627.548C627.789 125.541 627.91 125.703 627.91 126.055V180.12C627.91 180.444 627.789 180.634 627.548 180.634H625.339C625.098 180.634 624.977 180.471 624.977 180.12V155.902H618.076L610.606 180.282C610.554 180.39 610.502 180.471 610.467 180.525C610.416 180.58 610.329 180.607 610.191 180.607H607.793ZM619.663 152.871H624.994V128.896H620.509C617.662 128.896 615.574 129.871 614.211 131.792C612.848 133.713 612.193 136.798 612.193 140.992C612.193 144.97 612.814 147.946 614.039 149.894C615.281 151.87 617.162 152.871 619.663 152.871Z" fill="white"/>
<path d="M637.364 181.121C636.691 181.121 636.174 180.904 635.76 180.444C635.363 179.984 635.156 179.362 635.156 178.523V177.928C635.156 177.089 635.363 176.44 635.76 176.007C636.157 175.547 636.691 175.33 637.364 175.33C638.072 175.33 638.624 175.547 639.003 176.007C639.383 176.467 639.573 177.089 639.573 177.928V178.523C639.573 179.362 639.383 180.011 639.003 180.444C638.624 180.904 638.072 181.121 637.364 181.121Z" fill="white"/>
<path d="M656.981 180.606C656.739 180.606 656.618 180.444 656.618 180.092V126.028C656.618 125.703 656.739 125.514 656.981 125.514H659.189C659.43 125.514 659.551 125.676 659.551 126.028V150.408H674.337V126.028C674.337 125.703 674.457 125.514 674.699 125.514H676.907C677.149 125.514 677.27 125.676 677.27 126.028V180.092C677.27 180.417 677.149 180.606 676.907 180.606H674.699C674.457 180.606 674.337 180.444 674.337 180.092V153.764H659.551V180.092C659.551 180.417 659.43 180.606 659.189 180.606H656.981Z" fill="white"/>
<path d="M685.982 180.606C685.741 180.606 685.62 180.444 685.62 180.092V126.028C685.62 125.703 685.741 125.514 685.982 125.514H701.406C701.648 125.514 701.769 125.676 701.769 126.028V128.382C701.769 128.707 701.648 128.896 701.406 128.896H688.536V150.841H700.406C700.647 150.841 700.768 151.004 700.768 151.355V153.547C700.768 153.872 700.647 154.061 700.406 154.061H688.536V177.278H701.406C701.648 177.278 701.769 177.44 701.769 177.792V180.146C701.769 180.471 701.648 180.661 701.406 180.661H685.982V180.606Z" fill="white"/>
<path d="M718.969 181.121C715.553 181.121 712.931 179.849 711.119 177.306C709.291 174.762 708.376 170.947 708.376 165.914V140.343C708.376 135.175 709.291 131.332 711.119 128.816C712.948 126.299 715.553 125.027 718.969 125.027C722.334 125.027 724.939 126.299 726.785 128.816C728.631 131.332 729.562 135.175 729.562 140.343V165.914C729.562 170.947 728.631 174.762 726.785 177.306C724.939 179.849 722.334 181.121 718.969 181.121ZM718.969 177.766C721.436 177.766 723.334 176.792 724.663 174.816C725.991 172.841 726.647 169.81 726.647 165.643V140.586C726.647 136.392 725.974 133.307 724.663 131.332C723.334 129.357 721.436 128.383 718.969 128.383C716.45 128.383 714.553 129.357 713.241 131.332C711.93 133.307 711.292 136.365 711.292 140.586V165.643C711.292 169.783 711.948 172.841 713.241 174.816C714.553 176.765 716.45 177.766 718.969 177.766Z" fill="white"/>
<path d="M737.585 180.606C737.343 180.606 737.223 180.417 737.223 180.011V126.028C737.223 125.703 737.343 125.514 737.585 125.514H752.37C752.612 125.514 752.733 125.676 752.733 126.028V128.382C752.733 128.707 752.595 128.896 752.301 128.896H740.138V148.162H743.899C748.023 148.162 751.025 149.434 752.888 151.978C754.751 154.521 755.7 158.472 755.7 163.803C755.7 167.618 755.303 170.757 754.527 173.273C753.751 175.763 752.526 177.63 750.87 178.82C749.213 180.038 747.005 180.633 744.262 180.633H737.585V180.606ZM740.156 177.251H744.21C747.384 177.251 749.61 176.169 750.887 174.004C752.163 171.839 752.802 168.43 752.802 163.776C752.802 159.527 752.129 156.388 750.783 154.386C749.438 152.384 747.143 151.409 743.917 151.409H740.156V177.251Z" fill="white"/>
<path d="M758.702 180.606C758.461 180.606 758.392 180.39 758.495 179.93L768.088 152.248L759.065 126.19C758.926 125.73 758.995 125.513 759.272 125.513H761.894C762.084 125.513 762.222 125.595 762.325 125.757L767.225 140.721C767.691 142.128 768.157 143.562 768.605 144.996C769.054 146.457 769.502 147.891 769.916 149.271H769.985C770.417 147.81 770.865 146.376 771.331 144.942C771.797 143.508 772.28 142.074 772.746 140.612L777.646 125.811C777.697 125.595 777.818 125.486 778.008 125.486H780.561C780.837 125.486 780.924 125.703 780.768 126.163L771.814 152.329L781.269 180.011C781.458 180.417 781.389 180.606 781.062 180.606H778.439C778.301 180.606 778.18 180.498 778.077 180.281L772.918 164.803C772.401 163.18 771.883 161.583 771.383 160.014C770.883 158.445 770.399 156.875 769.934 155.306H769.865C769.433 156.875 768.968 158.445 768.45 160.014C767.932 161.583 767.432 163.126 766.966 164.641L761.773 180.2C761.67 180.471 761.532 180.633 761.342 180.633H758.702V180.606Z" fill="white"/>
<path d="M795.726 181.121C792.31 181.121 789.688 179.849 787.876 177.306C786.048 174.762 785.133 170.947 785.133 165.914V140.343C785.133 135.175 786.048 131.332 787.876 128.816C789.705 126.299 792.31 125.027 795.726 125.027C799.091 125.027 801.696 126.299 803.542 128.816C805.388 131.332 806.319 135.175 806.319 140.343V165.914C806.319 170.947 805.388 174.762 803.542 177.306C801.696 179.849 799.091 181.121 795.726 181.121ZM795.726 177.766C798.193 177.766 800.091 176.792 801.42 174.816C802.748 172.841 803.404 169.81 803.404 165.643V140.586C803.404 136.392 802.731 133.307 801.42 131.332C800.091 129.357 798.193 128.383 795.726 128.383C793.207 128.383 791.31 129.357 789.998 131.332C788.687 133.307 788.049 136.365 788.049 140.586V165.643C788.049 169.783 788.704 172.841 789.998 174.816C791.31 176.765 793.225 177.766 795.726 177.766Z" fill="white"/>
<path d="M811.081 192.972C810.805 192.972 810.65 192.837 810.65 192.54V177.738C810.65 177.413 810.788 177.224 811.081 177.224H835.891C836.132 177.224 836.253 177.386 836.253 177.738V192.54C836.253 192.81 836.115 192.972 835.822 192.972H833.682C833.441 192.972 833.32 192.837 833.32 192.54V180.606H813.566V192.54C813.566 192.81 813.445 192.972 813.203 192.972H811.081ZM813.997 180.282L812.358 178.09C813.013 177.576 813.548 176.331 813.962 174.356C814.359 172.353 814.618 169.674 814.704 166.238L815.843 126.109C815.843 125.73 815.929 125.514 816.119 125.514H832.682C832.871 125.568 832.958 125.757 832.958 126.109V180.092C832.958 180.417 832.854 180.606 832.682 180.606H830.335C830.145 180.606 830.059 180.444 830.059 180.092V128.896H818.69L817.62 165.994C817.568 168.809 817.396 171.136 817.085 172.976C816.775 174.816 816.361 176.331 815.843 177.468C815.325 178.604 814.704 179.551 813.997 180.282Z" fill="white"/>
<path d="M841.929 180.606C841.687 180.606 841.567 180.444 841.567 180.092V126.028C841.567 125.703 841.687 125.514 841.929 125.514H844.137C844.379 125.514 844.5 125.676 844.5 126.028V152.681C844.5 154.305 844.482 156.091 844.465 158.066C844.448 160.041 844.396 162.044 844.327 164.127C844.258 166.211 844.206 168.213 844.189 170.134C844.172 172.056 844.137 173.869 844.086 175.546H844.224C844.845 173.246 845.5 170.811 846.208 168.267C846.915 165.724 847.64 163.099 848.381 160.447C849.123 157.795 849.865 155.225 850.624 152.762L858.509 125.838C858.595 125.622 858.75 125.514 858.94 125.514H861.787C862.028 125.514 862.149 125.676 862.149 126.028V180.092C862.149 180.417 862.028 180.606 861.787 180.606H859.578C859.337 180.606 859.216 180.444 859.216 180.092L859.354 154.521C859.354 152.735 859.371 150.814 859.389 148.758C859.406 146.701 859.44 144.618 859.492 142.48C859.544 140.342 859.578 138.286 859.63 136.256C859.682 134.227 859.716 132.333 859.768 130.547H859.63C858.957 132.955 858.25 135.499 857.491 138.204C856.732 140.883 855.955 143.616 855.179 146.349C854.403 149.109 853.609 151.815 852.798 154.494L845.19 180.228C845.138 180.444 845 180.552 844.758 180.552H841.929V180.606Z" fill="white"/>
<path d="M870.292 180.606C870.051 180.606 869.93 180.444 869.93 180.092L870.568 126.028C870.568 125.703 870.706 125.514 871 125.514H874.485C874.726 125.514 874.864 125.649 874.916 125.947L883.439 162.531L891.962 125.947C892.013 125.676 892.169 125.514 892.462 125.514H895.878C896.12 125.514 896.24 125.676 896.24 126.028L896.879 180.092C896.879 180.417 896.758 180.606 896.516 180.606H894.377C894.101 180.606 893.946 180.444 893.946 180.092L893.618 141.262C893.566 139.639 893.566 137.88 893.583 136.013C893.601 134.146 893.618 132.333 893.618 130.601H893.549C893.221 132.278 892.841 133.983 892.41 135.688C891.979 137.393 891.582 139.07 891.202 140.694L883.956 170.973C883.905 171.244 883.767 171.406 883.525 171.406H883.318C883.076 171.406 882.938 171.271 882.887 170.973L875.572 140.45C875.192 138.827 874.812 137.176 874.433 135.526C874.053 133.875 873.691 132.224 873.363 130.601H873.225C873.277 132.278 873.294 134.01 873.294 135.823C873.294 137.609 873.294 139.341 873.294 140.965L872.863 180.146C872.863 180.471 872.742 180.661 872.501 180.661H870.292V180.606Z" fill="white"/>
<path d="M914.649 181.121C911.233 181.121 908.61 179.849 906.799 177.306C904.97 174.762 904.056 170.947 904.056 165.914V140.343C904.056 135.175 904.97 131.332 906.799 128.816C908.628 126.299 911.233 125.027 914.649 125.027C918.013 125.027 920.618 126.299 922.464 128.816C924.31 131.332 925.242 135.175 925.242 140.343V165.914C925.242 170.947 924.31 174.762 922.464 177.306C920.618 179.849 918.013 181.121 914.649 181.121ZM914.649 177.766C917.116 177.766 919.014 176.792 920.342 174.816C921.671 172.841 922.326 169.81 922.326 165.643V140.586C922.326 136.392 921.653 133.307 920.342 131.332C919.014 129.357 917.116 128.383 914.649 128.383C912.13 128.383 910.232 129.357 908.921 131.332C907.61 133.307 906.971 136.365 906.971 140.586V165.643C906.971 169.783 907.627 172.841 908.921 174.816C910.232 176.765 912.13 177.766 914.649 177.766Z" fill="white"/>
<path d="M943.081 180.606C942.84 180.606 942.719 180.444 942.719 180.092V126.028C942.719 125.703 942.805 125.514 942.995 125.514H962.973C963.163 125.514 963.25 125.676 963.25 126.028V180.092C963.25 180.417 963.129 180.606 962.887 180.606H960.679C960.437 180.606 960.317 180.444 960.317 180.092V128.896H945.6V180.119C945.6 180.444 945.479 180.633 945.238 180.633H943.081V180.606Z" fill="white"/>
<path d="M972.014 180.606C971.772 180.606 971.652 180.444 971.652 180.092V126.028C971.652 125.703 971.772 125.514 972.014 125.514H978.052C981.848 125.514 984.695 126.813 986.575 129.41C988.473 132.008 989.422 136.202 989.422 141.993C989.422 147.323 988.542 151.382 986.799 154.142C985.04 156.93 982.227 158.31 978.346 158.31H974.585V180.092C974.585 180.417 974.464 180.606 974.222 180.606H972.014ZM974.567 154.954H978.052C981.175 154.954 983.366 153.872 984.626 151.707C985.885 149.542 986.506 146.349 986.506 142.074C986.506 137.366 985.799 133.983 984.401 131.9C983.004 129.816 980.951 128.788 978.259 128.788H974.567V154.954Z" fill="white"/>
<path d="M1005.48 181.121C1002.07 181.121 999.446 179.849 997.634 177.306C995.805 174.762 994.891 170.947 994.891 165.914V140.343C994.891 135.175 995.805 131.332 997.634 128.816C999.463 126.299 1002.07 125.027 1005.48 125.027C1008.85 125.027 1011.45 126.299 1013.3 128.816C1015.15 131.332 1016.08 135.175 1016.08 140.343V165.914C1016.08 170.947 1015.15 174.762 1013.3 177.306C1011.45 179.849 1008.85 181.121 1005.48 181.121ZM1005.48 177.766C1007.95 177.766 1009.85 176.792 1011.18 174.816C1012.51 172.841 1013.16 169.81 1013.16 165.643V140.586C1013.16 136.392 1012.49 133.307 1011.18 131.332C1009.85 129.357 1007.95 128.383 1005.48 128.383C1002.97 128.383 1001.07 129.357 999.756 131.332C998.445 133.307 997.807 136.365 997.807 140.586V165.643C997.807 169.783 998.462 172.841 999.756 174.816C1001.07 176.765 1002.98 177.766 1005.48 177.766Z" fill="white"/>
<path d="M1024.12 180.606C1023.88 180.606 1023.75 180.444 1023.75 180.092V126.028C1023.75 125.703 1023.88 125.514 1024.12 125.514H1026.33C1026.57 125.514 1026.69 125.676 1026.69 126.028V150.598H1031.24L1040.33 125.865C1040.39 125.703 1040.44 125.595 1040.51 125.568C1040.58 125.541 1040.64 125.514 1040.68 125.514H1043.03C1043.16 125.514 1043.27 125.568 1043.3 125.676C1043.35 125.784 1043.32 125.947 1043.23 126.19L1033.71 151.924L1044.3 179.93C1044.44 180.39 1044.35 180.606 1044.03 180.606H1041.61C1041.51 180.606 1041.44 180.606 1041.4 180.552C1041.35 180.525 1041.28 180.417 1041.2 180.255L1031.31 153.926H1026.69V180.092C1026.69 180.417 1026.57 180.606 1026.33 180.606H1024.12Z" fill="white"/>
<path d="M1059.02 181.121C1055.6 181.121 1052.98 179.849 1051.17 177.306C1049.34 174.762 1048.43 170.947 1048.43 165.914V140.343C1048.43 135.175 1049.34 131.332 1051.17 128.816C1053 126.299 1055.6 125.027 1059.02 125.027C1062.38 125.027 1064.99 126.299 1066.83 128.816C1068.68 131.332 1069.61 135.175 1069.61 140.343V165.914C1069.61 170.947 1068.68 174.762 1066.83 177.306C1064.99 179.849 1062.38 181.121 1059.02 181.121ZM1059.02 177.766C1061.49 177.766 1063.38 176.792 1064.71 174.816C1066.04 172.841 1066.7 169.81 1066.7 165.643V140.586C1066.7 136.392 1066.02 133.307 1064.71 131.332C1063.38 129.357 1061.49 128.383 1059.02 128.383C1056.5 128.383 1054.6 129.357 1053.29 131.332C1051.98 133.307 1051.34 136.365 1051.34 140.586V165.643C1051.34 169.783 1052 172.841 1053.29 174.816C1054.59 176.765 1056.5 177.766 1059.02 177.766Z" fill="white"/>
<path d="M1077.63 180.606C1077.39 180.606 1077.27 180.444 1077.27 180.092V126.028C1077.27 125.703 1077.39 125.514 1077.63 125.514H1079.84C1080.08 125.514 1080.21 125.676 1080.21 126.028V150.408H1094.99V126.028C1094.99 125.703 1095.11 125.514 1095.35 125.514H1097.56C1097.8 125.514 1097.92 125.676 1097.92 126.028V180.092C1097.92 180.417 1097.8 180.606 1097.56 180.606H1095.35C1095.11 180.606 1094.99 180.444 1094.99 180.092V153.764H1080.21V180.092C1080.21 180.417 1080.08 180.606 1079.84 180.606H1077.63Z" fill="white"/>
<path d="M1116.16 181.121C1112.69 181.121 1110.07 179.768 1108.28 177.089C1106.48 174.411 1105.57 170.379 1105.57 165.075V141.101C1105.57 135.77 1106.46 131.765 1108.28 129.086C1110.07 126.38 1112.69 125.027 1116.16 125.027C1118.63 125.027 1120.66 125.731 1122.27 127.138C1123.87 128.545 1125.03 130.547 1125.72 133.145C1126.41 135.743 1126.6 138.936 1126.32 142.697C1126.27 142.968 1126.15 143.13 1125.96 143.13H1123.75C1123.47 143.13 1123.35 142.968 1123.39 142.616C1123.63 137.853 1123.16 134.282 1122.01 131.927C1120.85 129.573 1118.89 128.383 1116.14 128.383C1113.62 128.383 1111.73 129.438 1110.41 131.549C1109.1 133.659 1108.46 136.906 1108.46 141.344V164.805C1108.46 169.188 1109.12 172.435 1110.41 174.546C1111.73 176.684 1113.62 177.739 1116.14 177.739C1118.94 177.739 1120.92 176.521 1122.08 174.086C1123.23 171.65 1123.72 168.133 1123.53 163.533C1123.47 163.208 1123.6 163.019 1123.89 163.019H1125.94C1126.24 163.019 1126.37 163.181 1126.37 163.533C1126.61 169.242 1125.87 173.599 1124.16 176.602C1122.46 179.606 1119.8 181.121 1116.16 181.121Z" fill="white"/>
<path d="M1135.91 180.606C1135.78 180.606 1135.67 180.552 1135.59 180.471C1135.52 180.39 1135.5 180.228 1135.55 180.011L1140.31 161.692L1130.93 126.19C1130.82 125.73 1130.93 125.514 1131.2 125.514H1133.76C1134 125.514 1134.14 125.622 1134.19 125.838L1139.59 147.621C1139.97 149.191 1140.35 150.787 1140.73 152.384C1141.11 153.98 1141.49 155.577 1141.87 157.146H1141.94C1142.31 155.577 1142.69 153.98 1143.07 152.356C1143.45 150.733 1143.83 149.136 1144.21 147.567L1149.54 125.865C1149.6 125.649 1149.72 125.541 1149.91 125.541H1152.39C1152.72 125.541 1152.84 125.757 1152.75 126.217L1138.61 180.282C1138.55 180.498 1138.43 180.606 1138.24 180.606H1135.91Z" fill="white"/>
<path d="M1156.67 181.121C1156.29 181.121 1155.93 181.094 1155.6 181.04C1155.27 180.986 1154.96 180.904 1154.67 180.796C1154.48 180.688 1154.39 180.498 1154.39 180.201V177.928C1154.39 177.657 1154.53 177.549 1154.82 177.603C1155.12 177.657 1155.34 177.711 1155.53 177.738C1155.72 177.765 1155.91 177.793 1156.1 177.793C1157.05 177.793 1157.74 176.872 1158.15 175.005C1158.58 173.165 1158.86 170.026 1159 165.589L1160.14 126.136C1160.14 125.757 1160.26 125.541 1160.5 125.541H1176.77C1177.01 125.541 1177.13 125.703 1177.13 126.055V180.12C1177.13 180.444 1177.01 180.634 1176.77 180.634H1174.56C1174.32 180.634 1174.2 180.471 1174.2 180.12V128.896H1162.97L1161.9 165.399C1161.79 169.269 1161.57 172.354 1161.19 174.654C1160.81 176.954 1160.26 178.604 1159.52 179.605C1158.83 180.607 1157.86 181.121 1156.67 181.121Z" fill="white"/>
<path d="M1185.89 180.606C1185.65 180.606 1185.53 180.444 1185.53 180.092V126.028C1185.53 125.703 1185.65 125.514 1185.89 125.514H1188.1C1188.34 125.514 1188.47 125.676 1188.47 126.028V147.648H1191.52C1195.83 147.648 1198.99 148.947 1201.01 151.518C1203.03 154.088 1204.03 158.039 1204.03 163.37C1204.03 169.269 1203.08 173.598 1201.18 176.412C1199.28 179.226 1196.21 180.606 1191.93 180.606H1185.89ZM1188.45 177.251H1191.86C1195.18 177.251 1197.56 176.169 1199.01 173.977C1200.46 171.785 1201.15 168.267 1201.11 163.37C1201.11 159.121 1200.35 155.982 1198.83 153.98C1197.32 151.978 1194.88 151.004 1191.52 151.004H1188.47V177.251H1188.45Z" fill="white"/>
<path d="M1216.38 180.606C1216.14 180.606 1216.02 180.444 1216.02 180.092V128.896H1207.84C1207.56 128.896 1207.41 128.734 1207.41 128.382V126.028C1207.41 125.703 1207.55 125.514 1207.84 125.514H1227.11C1227.35 125.514 1227.47 125.676 1227.47 126.028V128.382C1227.47 128.707 1227.35 128.896 1227.11 128.896H1218.93V180.119C1218.93 180.444 1218.8 180.633 1218.5 180.633H1216.38V180.606Z" fill="white"/>
<path d="M1233.44 180.606C1233.2 180.606 1233.08 180.444 1233.08 180.092V126.028C1233.08 125.703 1233.2 125.514 1233.44 125.514H1235.65C1235.89 125.514 1236.01 125.676 1236.01 126.028V152.681C1236.01 154.305 1236 156.091 1235.98 158.066C1235.96 160.041 1235.91 162.044 1235.84 164.127C1235.77 166.211 1235.72 168.213 1235.7 170.134C1235.69 172.056 1235.65 173.869 1235.6 175.546H1235.74C1236.36 173.246 1237.01 170.811 1237.72 168.267C1238.43 165.724 1239.15 163.099 1239.9 160.447C1240.64 157.795 1241.38 155.225 1242.14 152.762L1250.02 125.838C1250.11 125.622 1250.26 125.514 1250.45 125.514H1253.3C1253.54 125.514 1253.66 125.676 1253.66 126.028V180.092C1253.66 180.417 1253.54 180.606 1253.3 180.606H1251.09C1250.85 180.606 1250.73 180.444 1250.73 180.092L1250.87 154.521C1250.87 152.735 1250.89 150.814 1250.9 148.758C1250.92 146.701 1250.95 144.618 1251.01 142.48C1251.06 140.342 1251.09 138.286 1251.14 136.256C1251.2 134.227 1251.23 132.333 1251.28 130.547H1251.14C1250.47 132.955 1249.76 135.499 1249.01 138.204C1248.25 140.883 1247.47 143.616 1246.69 146.349C1245.92 149.109 1245.12 151.815 1244.31 154.494L1236.7 180.228C1236.65 180.444 1236.51 180.552 1236.27 180.552H1233.44V180.606Z" fill="white"/>
<path d="M1262.38 180.606C1262.13 180.606 1262.01 180.444 1262.01 180.092V126.028C1262.01 125.703 1262.13 125.514 1262.38 125.514H1268.41C1272.21 125.514 1275.06 126.813 1276.94 129.41C1278.83 132.008 1279.78 136.202 1279.78 141.993C1279.78 147.323 1278.9 151.382 1277.16 154.142C1275.4 156.93 1272.59 158.31 1268.71 158.31H1264.95V180.092C1264.95 180.417 1264.83 180.606 1264.58 180.606H1262.38ZM1264.93 154.954H1268.41C1271.54 154.954 1273.73 153.872 1274.99 151.707C1276.25 149.542 1276.87 146.349 1276.87 142.074C1276.87 137.366 1276.16 133.983 1274.76 131.9C1273.37 129.816 1271.31 128.788 1268.62 128.788H1264.93V154.954Z" fill="white"/>
<path d="M1295.85 181.121C1292.43 181.121 1289.81 179.849 1288 177.306C1286.17 174.762 1285.25 170.947 1285.25 165.914V140.343C1285.25 135.175 1286.17 131.332 1288 128.816C1289.82 126.299 1292.43 125.027 1295.85 125.027C1299.21 125.027 1301.82 126.299 1303.66 128.816C1305.51 131.332 1306.44 135.175 1306.44 140.343V165.914C1306.44 170.947 1305.51 174.762 1303.66 177.306C1301.82 179.849 1299.21 181.121 1295.85 181.121ZM1295.85 177.766C1298.31 177.766 1300.21 176.792 1301.54 174.816C1302.87 172.841 1303.52 169.81 1303.52 165.643V140.586C1303.52 136.392 1302.85 133.307 1301.54 131.332C1300.21 129.357 1298.31 128.383 1295.85 128.383C1293.33 128.383 1291.43 129.357 1290.12 131.332C1288.81 133.307 1288.17 136.365 1288.17 140.586V165.643C1288.17 169.783 1288.82 172.841 1290.12 174.816C1291.43 176.765 1293.33 177.766 1295.85 177.766Z" fill="white"/>
<path d="M1314.55 180.606C1314.27 180.606 1314.12 180.444 1314.12 180.092V126.028C1314.12 125.703 1314.25 125.514 1314.55 125.514H1321.16C1324.76 125.514 1327.4 126.623 1329.07 128.842C1330.75 131.061 1331.59 134.443 1331.59 138.989C1331.59 142.074 1331.14 144.726 1330.25 146.945C1329.35 149.163 1328.04 150.733 1326.33 151.707V151.869C1328.47 152.6 1330.09 154.115 1331.2 156.415C1332.32 158.715 1332.87 161.665 1332.87 165.237C1332.87 170.351 1331.96 174.193 1330.13 176.764C1328.3 179.335 1325.54 180.633 1321.85 180.633H1314.55V180.606ZM1317.03 150.516H1321.93C1324.07 150.516 1325.73 149.515 1326.9 147.54C1328.09 145.565 1328.68 142.859 1328.68 139.422C1328.68 135.715 1328.09 133.036 1326.9 131.386C1325.71 129.735 1323.86 128.896 1321.36 128.896H1317.03V150.516ZM1317.03 177.251H1321.72C1324.57 177.251 1326.66 176.277 1327.99 174.356C1329.32 172.434 1329.97 169.296 1329.97 164.966C1329.97 161.259 1329.32 158.472 1328.02 156.605C1326.71 154.738 1324.8 153.791 1322.23 153.791H1317.03V177.251Z" fill="white"/>
<path d="M1335.87 180.606C1335.6 180.606 1335.48 180.417 1335.51 180.011L1345.33 125.947C1345.38 125.676 1345.52 125.514 1345.76 125.514H1348.81C1349.05 125.514 1349.19 125.649 1349.24 125.947L1359.06 180.011C1359.11 180.417 1359.01 180.606 1358.78 180.606H1356.44C1356.2 180.606 1356.06 180.471 1356.01 180.173L1349.26 141.154C1348.93 139.179 1348.6 137.257 1348.29 135.363C1347.98 133.469 1347.67 131.521 1347.33 129.573H1347.26C1346.98 131.548 1346.67 133.496 1346.38 135.417C1346.07 137.339 1345.72 139.314 1345.34 141.343L1338.6 180.2C1338.55 180.471 1338.41 180.633 1338.17 180.633H1335.87V180.606ZM1340.48 165.805L1341.12 162.45H1353.35L1353.99 165.805H1340.48Z" fill="white"/>
<path d="M1369.55 180.606C1369.31 180.606 1369.19 180.444 1369.19 180.092V128.896H1361.01C1360.73 128.896 1360.58 128.734 1360.58 128.382V126.028C1360.58 125.703 1360.72 125.514 1361.01 125.514H1380.28C1380.52 125.514 1380.64 125.676 1380.64 126.028V128.382C1380.64 128.707 1380.52 128.896 1380.28 128.896H1372.1V180.119C1372.1 180.444 1371.96 180.633 1371.67 180.633H1369.55V180.606Z" fill="white"/>
<path d="M1386.61 180.606C1386.37 180.606 1386.25 180.444 1386.25 180.092V126.028C1386.25 125.703 1386.37 125.514 1386.61 125.514H1388.82C1389.06 125.514 1389.18 125.676 1389.18 126.028V147.648H1392.24C1396.55 147.648 1399.71 148.947 1401.73 151.518C1403.74 154.088 1404.74 158.039 1404.74 163.37C1404.74 169.269 1403.8 173.598 1401.9 176.412C1400 179.226 1396.93 180.606 1392.65 180.606H1386.61ZM1389.17 177.251H1392.58C1395.89 177.251 1398.27 176.169 1399.72 173.977C1401.17 171.785 1401.86 168.267 1401.83 163.37C1401.83 159.121 1401.07 155.982 1399.55 153.98C1398.03 151.978 1395.6 151.004 1392.24 151.004H1389.18V177.251H1389.17Z" fill="white"/>
<path d="M1420.81 181.121C1417.34 181.121 1414.72 179.768 1412.92 177.089C1411.13 174.411 1410.21 170.379 1410.21 165.075V141.101C1410.21 135.77 1411.11 131.765 1412.92 129.086C1414.72 126.38 1417.34 125.027 1420.81 125.027C1423.27 125.027 1425.31 125.731 1426.91 127.138C1428.52 128.545 1429.67 130.547 1430.36 133.145C1431.05 135.743 1431.24 138.936 1430.97 142.697C1430.92 142.968 1430.8 143.13 1430.61 143.13H1428.4C1428.12 143.13 1428 142.968 1428.04 142.616C1428.28 137.853 1427.81 134.282 1426.66 131.927C1425.5 129.573 1423.53 128.383 1420.79 128.383C1418.27 128.383 1416.37 129.438 1415.06 131.549C1413.75 133.659 1413.11 136.906 1413.11 141.344V164.805C1413.11 169.188 1413.77 172.435 1415.06 174.546C1416.37 176.684 1418.27 177.739 1420.79 177.739C1423.58 177.739 1425.57 176.521 1426.72 174.086C1427.88 171.65 1428.36 168.133 1428.17 163.533C1428.12 163.208 1428.24 163.019 1428.54 163.019H1430.59C1430.88 163.019 1431.02 163.181 1431.02 163.533C1431.26 169.242 1430.52 173.599 1428.81 176.602C1427.1 179.606 1424.45 181.121 1420.81 181.121Z" fill="white"/>
<path d="M1436.37 180.607C1436.13 180.607 1436.09 180.39 1436.23 179.93L1441.56 162.612C1441.94 161.368 1442.34 160.123 1442.73 158.878C1443.13 157.606 1443.53 156.389 1443.91 155.225V155.063C1441.92 154.062 1440.41 152.438 1439.39 150.192C1438.37 147.946 1437.85 144.888 1437.85 141.019C1437.85 137.474 1438.28 134.579 1439.13 132.279C1439.97 129.979 1441.25 128.274 1442.92 127.192C1444.6 126.109 1446.72 125.541 1449.29 125.541H1456.12C1456.36 125.541 1456.49 125.703 1456.49 126.055V180.12C1456.49 180.444 1456.36 180.634 1456.12 180.634H1453.91C1453.67 180.634 1453.55 180.471 1453.55 180.12V155.902H1446.65L1439.18 180.282C1439.13 180.39 1439.08 180.471 1439.04 180.525C1438.99 180.58 1438.9 180.607 1438.77 180.607H1436.37ZM1448.24 152.871H1453.57V128.896H1449.08C1446.24 128.896 1444.15 129.871 1442.79 131.792C1441.42 133.713 1440.77 136.798 1440.77 140.992C1440.77 144.97 1441.39 147.946 1442.61 149.894C1443.86 151.87 1445.72 152.871 1448.24 152.871Z" fill="white"/>
<path d="M1484.56 181.121C1481.09 181.121 1478.47 179.768 1476.67 177.089C1474.88 174.411 1473.96 170.379 1473.96 165.075V141.101C1473.96 135.77 1474.86 131.765 1476.67 129.086C1478.47 126.38 1481.1 125.027 1484.56 125.027C1487.02 125.027 1489.06 125.731 1490.66 127.138C1492.27 128.545 1493.42 130.547 1494.11 133.145C1494.8 135.743 1494.99 138.936 1494.72 142.697C1494.67 142.968 1494.54 143.13 1494.35 143.13H1492.15C1491.87 143.13 1491.75 142.968 1491.78 142.616C1492.03 137.853 1491.56 134.282 1490.4 131.927C1489.25 129.573 1487.28 128.383 1484.54 128.383C1482.02 128.383 1480.12 129.438 1478.81 131.549C1477.5 133.659 1476.86 136.906 1476.86 141.344V164.805C1476.86 169.188 1477.52 172.435 1478.81 174.546C1480.12 176.684 1482.02 177.739 1484.54 177.739C1487.33 177.739 1489.32 176.521 1490.47 174.086C1491.63 171.65 1492.11 168.133 1491.92 163.533C1491.87 163.208 1491.99 163.019 1492.28 163.019H1494.34C1494.63 163.019 1494.77 163.181 1494.77 163.533C1495.01 169.242 1494.27 173.599 1492.56 176.602C1490.85 179.606 1488.21 181.121 1484.56 181.121Z" fill="white"/>
<path d="M1512.35 181.121C1508.93 181.121 1506.31 179.849 1504.5 177.306C1502.67 174.762 1501.76 170.947 1501.76 165.914V140.343C1501.76 135.175 1502.67 131.332 1504.5 128.816C1506.33 126.299 1508.93 125.027 1512.35 125.027C1515.71 125.027 1518.32 126.299 1520.16 128.816C1522.01 131.332 1522.94 135.175 1522.94 140.343V165.914C1522.94 170.947 1522.01 174.762 1520.16 177.306C1518.32 179.849 1515.71 181.121 1512.35 181.121ZM1512.35 177.766C1514.82 177.766 1516.71 176.792 1518.04 174.816C1519.37 172.841 1520.03 169.81 1520.03 165.643V140.586C1520.03 136.392 1519.35 133.307 1518.04 131.332C1516.71 129.357 1514.82 128.383 1512.35 128.383C1509.83 128.383 1507.93 129.357 1506.62 131.332C1505.31 133.307 1504.67 136.365 1504.67 140.586V165.643C1504.67 169.783 1505.33 172.841 1506.62 174.816C1507.93 176.765 1509.85 177.766 1512.35 177.766Z" fill="white"/>
<path d="M1550.31 181.121C1546.84 181.121 1544.21 179.768 1542.42 177.089C1540.63 174.411 1539.71 170.379 1539.71 165.075V141.101C1539.71 135.77 1540.61 131.765 1542.42 129.086C1544.21 126.38 1546.85 125.027 1550.31 125.027C1552.77 125.027 1554.81 125.731 1556.41 127.138C1558.02 128.545 1559.17 130.547 1559.86 133.145C1560.55 135.743 1560.74 138.936 1560.47 142.697C1560.42 142.968 1560.29 143.13 1560.1 143.13H1557.91C1557.64 143.13 1557.52 142.968 1557.55 142.616C1557.79 137.853 1557.33 134.282 1556.17 131.927C1555.02 129.573 1553.05 128.383 1550.31 128.383C1547.79 128.383 1545.89 129.438 1544.58 131.549C1543.27 133.659 1542.63 136.906 1542.63 141.344V164.805C1542.63 169.188 1543.28 172.435 1544.58 174.546C1545.89 176.684 1547.79 177.739 1550.31 177.739C1553.1 177.739 1555.08 176.521 1556.24 174.086C1557.4 171.65 1557.88 168.133 1557.69 163.533C1557.64 163.208 1557.76 163.019 1558.05 163.019H1560.1C1560.4 163.019 1560.54 163.181 1560.54 163.533C1560.78 169.242 1560.04 173.599 1558.33 176.602C1556.62 179.606 1553.96 181.121 1550.31 181.121Z" fill="white"/>
<path d="M1568.58 180.606C1568.33 180.606 1568.21 180.444 1568.21 180.092V126.028C1568.21 125.703 1568.3 125.514 1568.49 125.514H1588.47C1588.66 125.514 1588.74 125.676 1588.74 126.028V180.092C1588.74 180.417 1588.62 180.606 1588.38 180.606H1586.17C1585.93 180.606 1585.81 180.444 1585.81 180.092V128.896H1571.09V180.119C1571.09 180.444 1570.97 180.633 1570.73 180.633H1568.58V180.606Z" fill="white"/>
<path d="M1597.51 180.606C1597.27 180.606 1597.15 180.444 1597.15 180.092V126.028C1597.15 125.703 1597.27 125.514 1597.51 125.514H1612.93C1613.17 125.514 1613.29 125.676 1613.29 126.028V128.382C1613.29 128.707 1613.17 128.896 1612.93 128.896H1600.06V150.841H1611.93C1612.17 150.841 1612.29 151.004 1612.29 151.355V153.547C1612.29 153.872 1612.17 154.061 1611.93 154.061H1600.06V177.278H1612.93C1613.17 177.278 1613.29 177.44 1613.29 177.792V180.146C1613.29 180.471 1613.17 180.661 1612.93 180.661H1597.51V180.606Z" fill="white"/>
<path d="M1641.36 192.972C1641.12 192.972 1641 192.837 1641 192.54V180.606H1620.95C1620.71 180.606 1620.59 180.444 1620.59 180.092V126.028C1620.59 125.703 1620.71 125.514 1620.95 125.514H1623.16C1623.4 125.514 1623.53 125.676 1623.53 126.028V177.251H1637.74V126.028C1637.74 125.703 1637.86 125.514 1638.1 125.514H1640.31C1640.55 125.514 1640.67 125.676 1640.67 126.028V177.251H1643.59C1643.83 177.251 1643.95 177.413 1643.95 177.765V192.567C1643.95 192.837 1643.83 193 1643.59 193H1641.36V192.972Z" fill="white"/>
<path d="M1649.61 180.606C1649.37 180.606 1649.25 180.444 1649.25 180.092V126.028C1649.25 125.703 1649.37 125.514 1649.61 125.514H1651.82C1652.06 125.514 1652.18 125.676 1652.18 126.028V152.681C1652.18 154.305 1652.16 156.091 1652.15 158.066C1652.13 160.041 1652.08 162.044 1652.01 164.127C1651.94 166.211 1651.89 168.213 1651.87 170.134C1651.85 172.056 1651.82 173.869 1651.77 175.546H1651.91C1652.53 173.246 1653.18 170.811 1653.89 168.267C1654.6 165.724 1655.32 163.099 1656.06 160.447C1656.81 157.795 1657.55 155.225 1658.31 152.762L1666.19 125.838C1666.28 125.622 1666.43 125.514 1666.62 125.514H1669.47C1669.71 125.514 1669.83 125.676 1669.83 126.028V180.092C1669.83 180.417 1669.71 180.606 1669.47 180.606H1667.26C1667.02 180.606 1666.9 180.444 1666.9 180.092L1667.04 154.521C1667.04 152.735 1667.05 150.814 1667.07 148.758C1667.09 146.701 1667.12 144.618 1667.17 142.48C1667.23 140.342 1667.26 138.286 1667.31 136.256C1667.36 134.227 1667.4 132.333 1667.45 130.547H1667.31C1666.64 132.955 1665.93 135.499 1665.17 138.204C1664.41 140.883 1663.64 143.616 1662.86 146.349C1662.09 149.109 1661.29 151.815 1660.48 154.494L1652.87 180.228C1652.82 180.444 1652.68 180.552 1652.44 180.552H1649.61V180.606Z" fill="white"/>
<path d="M1674.42 180.606C1674.14 180.606 1674.02 180.417 1674.06 180.011L1683.88 125.947C1683.93 125.676 1684.06 125.514 1684.31 125.514H1687.36C1687.6 125.514 1687.74 125.649 1687.79 125.947L1697.61 180.011C1697.66 180.417 1697.56 180.606 1697.33 180.606H1694.99C1694.74 180.606 1694.61 180.471 1694.55 180.173L1687.81 141.154C1687.48 139.179 1687.15 137.257 1686.84 135.363C1686.53 133.469 1686.22 131.521 1685.88 129.573H1685.81C1685.53 131.548 1685.22 133.496 1684.93 135.417C1684.62 137.339 1684.27 139.314 1683.89 141.343L1677.15 180.2C1677.09 180.471 1676.96 180.633 1676.72 180.633H1674.42V180.606ZM1679.03 165.805L1679.67 162.45H1691.9L1692.54 165.805H1679.03Z" fill="white"/>
<path d="M1700.85 181.121C1700.47 181.121 1700.11 181.094 1699.78 181.04C1699.45 180.986 1699.14 180.904 1698.85 180.796C1698.66 180.688 1698.57 180.498 1698.57 180.201V177.928C1698.57 177.657 1698.71 177.549 1699.01 177.603C1699.3 177.657 1699.52 177.711 1699.71 177.738C1699.9 177.765 1700.09 177.793 1700.28 177.793C1701.23 177.793 1701.92 176.872 1702.34 175.005C1702.77 173.165 1703.04 170.026 1703.18 165.589L1704.32 126.136C1704.32 125.757 1704.44 125.541 1704.68 125.541H1720.95C1721.19 125.541 1721.31 125.703 1721.31 126.055V180.12C1721.31 180.444 1721.19 180.634 1720.95 180.634H1718.74C1718.5 180.634 1718.38 180.471 1718.38 180.12V128.896H1707.15L1706.08 165.399C1705.98 169.269 1705.75 172.354 1705.37 174.654C1704.99 176.954 1704.44 178.604 1703.7 179.605C1702.99 180.607 1702.04 181.121 1700.85 181.121Z" fill="white"/>
<path d="M1730.06 180.606C1729.82 180.606 1729.7 180.444 1729.7 180.092V126.028C1729.7 125.703 1729.82 125.514 1730.06 125.514H1732.27C1732.51 125.514 1732.63 125.676 1732.63 126.028V152.681C1732.63 154.305 1732.61 156.091 1732.6 158.066C1732.58 160.041 1732.53 162.044 1732.46 164.127C1732.39 166.211 1732.34 168.213 1732.32 170.134C1732.3 172.056 1732.27 173.869 1732.22 175.546H1732.36C1732.98 173.246 1733.63 170.811 1734.34 168.267C1735.05 165.724 1735.77 163.099 1736.51 160.447C1737.25 157.795 1738 155.225 1738.76 152.762L1746.64 125.838C1746.73 125.622 1746.88 125.514 1747.07 125.514H1749.92C1750.16 125.514 1750.28 125.676 1750.28 126.028V180.092C1750.28 180.417 1750.16 180.606 1749.92 180.606H1747.69C1747.45 180.606 1747.33 180.444 1747.33 180.092L1747.47 154.521C1747.47 152.735 1747.49 150.814 1747.5 148.758C1747.52 146.701 1747.55 144.618 1747.61 142.48C1747.66 140.342 1747.69 138.286 1747.74 136.256C1747.8 134.227 1747.83 132.333 1747.88 130.547H1747.74C1747.07 132.955 1746.36 135.499 1745.61 138.204C1744.85 140.883 1744.07 143.616 1743.29 146.349C1742.52 149.109 1741.72 151.815 1740.91 154.494L1733.3 180.228C1733.25 180.444 1733.11 180.552 1732.87 180.552H1730.06V180.606Z" fill="white"/>
<path d="M1768.52 181.122C1765.05 181.122 1762.43 179.769 1760.63 177.09C1758.84 174.411 1757.92 170.379 1757.92 165.075V141.101C1757.92 135.77 1758.82 131.765 1760.63 129.087C1762.43 126.408 1765.07 125.055 1768.52 125.055C1770.98 125.055 1773.02 125.758 1774.62 127.165C1776.23 128.572 1777.38 130.575 1778.07 133.172C1778.76 135.77 1778.95 138.963 1778.68 142.724C1778.63 142.995 1778.51 143.157 1778.32 143.157H1776.11C1775.83 143.157 1775.71 142.995 1775.75 142.643C1775.99 137.881 1775.52 134.309 1774.37 131.955C1773.21 129.601 1771.24 128.41 1768.5 128.41C1765.98 128.41 1764.08 129.465 1762.77 131.576C1761.46 133.687 1760.82 136.934 1760.82 141.371V164.832C1760.82 169.215 1761.48 172.463 1762.77 174.573C1764.08 176.711 1765.98 177.766 1768.5 177.766C1771.29 177.766 1773.28 176.549 1774.43 174.113C1775.59 171.678 1776.07 168.16 1775.88 163.56C1775.83 163.235 1775.95 163.046 1776.25 163.046H1778.3C1778.59 163.046 1778.73 163.208 1778.73 163.56C1778.97 169.27 1778.23 173.626 1776.52 176.63C1774.81 179.633 1772.17 181.122 1768.52 181.122Z" fill="white"/>
<path d="M1792.62 180.606C1792.38 180.606 1792.26 180.444 1792.26 180.092V128.896H1784.08C1783.8 128.896 1783.65 128.734 1783.65 128.382V126.028C1783.65 125.703 1783.79 125.514 1784.08 125.514H1803.35C1803.59 125.514 1803.71 125.676 1803.71 126.028V128.382C1803.71 128.707 1803.59 128.896 1803.35 128.896H1795.17V180.119C1795.17 180.444 1795.03 180.633 1794.74 180.633H1792.62V180.606Z" fill="white"/>
<path d="M1819.2 181.121C1815.79 181.121 1813.17 179.849 1811.36 177.306C1809.53 174.762 1808.61 170.947 1808.61 165.914V140.343C1808.61 135.175 1809.53 131.332 1811.36 128.816C1813.18 126.299 1815.79 125.027 1819.2 125.027C1822.57 125.027 1825.17 126.299 1827.02 128.816C1828.87 131.332 1829.8 135.175 1829.8 140.343V165.914C1829.8 170.947 1828.87 174.762 1827.02 177.306C1825.17 179.849 1822.57 181.121 1819.2 181.121ZM1819.2 177.766C1821.67 177.766 1823.57 176.792 1824.9 174.816C1826.23 172.841 1826.88 169.81 1826.88 165.643V140.586C1826.88 136.392 1826.21 133.307 1824.9 131.332C1823.57 129.357 1821.67 128.383 1819.2 128.383C1816.69 128.383 1814.79 129.357 1813.48 131.332C1812.17 133.307 1811.53 136.365 1811.53 140.586V165.643C1811.53 169.783 1812.18 172.841 1813.48 174.816C1814.79 176.765 1816.69 177.766 1819.2 177.766Z" fill="white"/>
<path d="M1837.25 180.606C1837.01 180.606 1836.89 180.444 1836.89 180.092L1837.53 126.028C1837.53 125.703 1837.67 125.514 1837.96 125.514H1841.44C1841.69 125.514 1841.82 125.649 1841.87 125.947L1850.4 162.531L1858.92 125.947C1858.97 125.676 1859.13 125.514 1859.42 125.514H1862.84C1863.08 125.514 1863.2 125.676 1863.2 126.028L1863.84 180.092C1863.84 180.417 1863.72 180.606 1863.48 180.606H1861.34C1861.06 180.606 1860.9 180.444 1860.9 180.092L1860.58 141.262C1860.53 139.639 1860.53 137.88 1860.54 136.013C1860.56 134.146 1860.58 132.333 1860.58 130.601H1860.51C1860.18 132.278 1859.8 133.983 1859.37 135.688C1858.94 137.393 1858.54 139.07 1858.16 140.694L1850.92 170.973C1850.86 171.244 1850.73 171.406 1850.48 171.406H1850.28C1850.04 171.406 1849.9 171.271 1849.85 170.973L1842.53 140.45C1842.15 138.827 1841.77 137.176 1841.39 135.526C1841.01 133.875 1840.65 132.224 1840.32 130.601H1840.18C1840.24 132.278 1840.25 134.01 1840.25 135.823C1840.25 137.609 1840.25 139.341 1840.25 140.965L1839.82 180.146C1839.82 180.471 1839.7 180.661 1839.46 180.661H1837.25V180.606Z" fill="white"/>
<path d="M1872.79 181.121C1872.12 181.121 1871.6 180.904 1871.19 180.444C1870.79 179.984 1870.58 179.362 1870.58 178.523V177.928C1870.58 177.089 1870.79 176.44 1871.19 176.007C1871.58 175.547 1872.12 175.33 1872.79 175.33C1873.5 175.33 1874.05 175.547 1874.43 176.007C1874.81 176.467 1875 177.089 1875 177.928V178.523C1875 179.362 1874.81 180.011 1874.43 180.444C1874.05 180.904 1873.5 181.121 1872.79 181.121Z" fill="white"/>
</g>
<g opacity="0.62">
<path d="M0.690768 109.074C0.2245 109.074 0 108.748 0 108.097V1.82045C0 1.27739 0.2245 1.00586 0.690768 1.00586H28.5287C28.9777 1.00586 29.2195 1.27739 29.2195 1.82045V5.62185C29.2195 6.16491 28.995 6.43643 28.5287 6.43643H4.66269V45.8896H12.3475C20.3086 45.8896 26.0592 48.3605 29.634 53.3023C33.2087 58.2441 34.9874 65.9012 34.9874 76.2465C34.9874 83.7407 34.2621 89.8772 32.7942 94.7376C31.3263 99.5708 28.995 103.182 25.8002 105.544C22.6054 107.907 18.3917 109.101 13.1764 109.101H0.690768V109.074ZM4.66269 103.644H13.021C19.4279 103.644 23.9006 101.444 26.4564 97.0456C29.0123 92.6468 30.2902 85.7228 30.2902 76.2465C30.2902 67.6662 28.9259 61.3667 26.1801 57.3481C23.4343 53.3295 18.7716 51.3201 12.1921 51.3201H4.66269V103.644Z" fill="white"/>
<path d="M40.4618 109.074C39.9091 109.074 39.6846 108.748 39.771 108.097L58.9744 1.65753C59.0607 1.22308 59.337 1.00586 59.8033 1.00586H64.466C64.915 1.00586 65.1913 1.22308 65.2949 1.65753L84.4982 108.097C84.5846 108.748 84.4119 109.074 83.9456 109.074H80.25C79.8874 109.074 79.6629 108.857 79.5592 108.423L65.9684 30.1952C65.3294 26.3395 64.7077 22.5381 64.1206 18.8181C63.5334 15.071 62.9117 11.3511 62.2728 7.60401H61.9965C61.4439 11.3511 60.874 15.1525 60.2868 18.9811C59.6997 22.8368 59.0262 26.6925 58.3009 30.521L44.7273 108.423C44.6409 108.857 44.3646 109.074 43.8983 109.074H40.4618ZM48.8373 79.369L49.8044 73.9113H74.3612L75.4664 79.369H48.8373Z" fill="white"/>
<path d="M89.5581 134.001C89.1955 134.001 89.0055 133.729 89.0055 133.186V104.458C89.0055 103.915 89.1955 103.644 89.5581 103.644H137.29C137.739 103.644 137.981 103.915 137.981 104.458V133.186C137.981 133.729 137.756 134.001 137.29 134.001H133.854C133.491 134.001 133.301 133.729 133.301 133.186V109.101H93.6854V133.186C93.6854 133.729 93.4609 134.001 92.9947 134.001H89.5581ZM95.4642 108.097L92.5802 105.137C93.8581 103.807 94.8598 101.146 95.6023 97.127C96.3276 93.1084 96.7939 87.6507 96.9666 80.6995L99.1598 1.98336C99.1598 1.33169 99.3498 1.00586 99.7124 1.00586H130.987C131.35 1.11447 131.54 1.44031 131.54 1.98336V108.26C131.54 108.803 131.401 109.074 131.125 109.074H127.291C127.015 109.074 126.877 108.803 126.877 108.26V6.43643H103.684L101.629 80.3737C101.543 85.6414 101.215 90.1216 100.662 93.7329C100.11 97.3714 99.4016 100.304 98.5381 102.558C97.6746 104.811 96.6557 106.658 95.4642 108.097Z" fill="white"/>
<path d="M152.798 110.24C151.606 110.24 150.691 109.833 150.052 108.991C149.413 108.177 149.085 107.036 149.085 105.597V104.429C149.085 102.99 149.396 101.904 150.052 101.117C150.691 100.357 151.606 99.9492 152.798 99.9492C153.99 99.9492 154.922 100.329 155.613 101.117C156.304 101.877 156.649 102.99 156.649 104.429V105.597C156.649 107.036 156.304 108.149 155.613 108.991C154.922 109.833 153.99 110.24 152.798 110.24Z" fill="white"/>
<path d="M191.067 109.074C190.704 109.074 190.514 108.803 190.514 108.26V1.82045C190.514 1.27739 190.704 1.00586 191.067 1.00586H194.503C194.952 1.00586 195.194 1.27739 195.194 1.82045V50.5055H224.966V1.82045C224.966 1.27739 225.19 1.00586 225.657 1.00586H228.955C229.404 1.00586 229.646 1.27739 229.646 1.82045V108.26C229.646 108.803 229.421 109.074 228.955 109.074H225.657C225.19 109.074 224.966 108.803 224.966 108.26V55.7732H195.194V108.26C195.194 108.803 194.969 109.074 194.503 109.074H191.067Z" fill="white"/>
<path d="M247.019 109.074C246.552 109.074 246.328 108.803 246.328 108.26V1.82045C246.328 1.27739 246.518 1.00586 246.881 1.00586H276.238C276.687 1.00586 276.929 1.27739 276.929 1.82045V5.62185C276.929 6.16491 276.705 6.43643 276.238 6.43643H251.008V51.1572H274.46C274.822 51.1572 275.012 51.4287 275.012 51.9718V55.6103C275.012 56.1533 274.822 56.4249 274.46 56.4249H251.008V103.617H276.238C276.687 103.617 276.929 103.888 276.929 104.431V108.233C276.929 108.776 276.705 109.047 276.238 109.047H247.019V109.074Z" fill="white"/>
<path d="M306.408 109.074C306.045 109.074 305.993 108.694 306.269 107.907L316.7 73.4226C317.425 71.006 318.185 68.5894 318.962 66.1728C319.739 63.7562 320.499 61.3939 321.225 59.0859V58.76C317.287 56.7779 314.334 53.601 312.383 49.2022C310.414 44.8034 309.43 38.7484 309.43 31.0369C309.43 24.113 310.224 18.4109 311.83 13.9578C313.436 9.50471 315.837 6.21921 319.031 4.12844C322.226 2.03767 326.302 1.00586 331.241 1.00586H344.003C344.452 1.00586 344.693 1.27739 344.693 1.82045V108.26C344.693 108.803 344.469 109.074 344.003 109.074H340.566C340.203 109.074 340.013 108.803 340.013 108.26V60.2263H325.749L310.932 108.586C310.846 108.694 310.742 108.803 310.656 108.911C310.569 109.02 310.431 109.074 310.241 109.074H306.408ZM328.633 55.1215H340.013V6.43643H330.826C324.972 6.43643 320.724 8.41859 318.064 12.3829C315.405 16.3472 314.092 22.5109 314.092 30.874C314.092 38.9113 315.284 44.9664 317.65 49.0393C320.033 53.0851 323.694 55.1215 328.633 55.1215Z" fill="white"/>
<path d="M361.963 109.074C361.496 109.074 361.272 108.803 361.272 108.26V1.82045C361.272 1.27739 361.496 1.00586 361.963 1.00586H374.586C381.356 1.00586 386.329 3.15094 389.542 7.44109C392.736 11.7312 394.342 18.3294 394.342 27.2355C394.342 33.5079 393.444 38.857 391.666 43.2557C389.887 47.6545 387.348 50.7499 384.05 52.4877V52.8135C388.16 54.2527 391.32 57.2123 393.513 61.7197C395.707 66.2271 396.812 71.9563 396.812 78.8803C396.812 89.0083 395.068 96.5568 391.597 101.58C388.125 106.576 382.858 109.101 375.83 109.101H361.963V109.074ZM365.935 50.5056H376.227C380.423 50.5056 383.722 48.4962 386.105 44.4776C388.488 40.459 389.662 34.947 389.662 27.8872C389.662 20.5288 388.471 15.0982 386.105 11.6226C383.722 8.14707 379.974 6.43643 374.863 6.43643H365.952V50.5056H365.935ZM365.935 103.644H375.398C381.252 103.644 385.501 101.662 388.16 97.6973C390.819 93.7329 392.132 87.352 392.132 78.5545C392.132 71.196 390.802 65.5754 388.16 61.7197C385.501 57.864 381.667 55.9361 376.641 55.9361H365.935V103.644Z" fill="white"/>
<path d="M407.64 110.079C406.914 110.079 406.275 110.025 405.723 109.916C405.17 109.807 404.583 109.645 403.944 109.427C403.668 109.319 403.53 108.993 403.53 108.45V104.811C403.53 104.268 403.754 104.051 404.22 104.16C404.859 104.377 405.36 104.513 405.723 104.567C406.086 104.621 406.5 104.648 406.949 104.648C408.779 104.648 410.127 102.721 410.99 98.8648C411.853 95.0091 412.389 88.5739 412.561 79.5591L414.755 1.98336C414.755 1.33169 414.979 1.00586 415.445 1.00586H446.306C446.754 1.00586 446.996 1.27739 446.996 1.82045V108.26C446.996 108.803 446.772 109.074 446.306 109.074H443.007C442.541 109.074 442.316 108.803 442.316 108.26V6.43643H419.417L417.362 79.3691C417.172 86.9719 416.723 92.9998 415.998 97.5343C415.273 102.042 414.237 105.273 412.907 107.201C411.594 109.101 409.833 110.079 407.64 110.079Z" fill="white"/>
<path d="M459.205 109.074C458.843 109.074 458.791 108.694 459.067 107.907L469.498 73.4226C470.223 71.006 470.983 68.5894 471.76 66.1728C472.537 63.7562 473.297 61.3939 474.022 59.0859V58.76C470.085 56.7779 467.132 53.601 465.181 49.2022C463.212 44.8034 462.228 38.7484 462.228 31.0369C462.228 24.113 463.022 18.4109 464.628 13.9578C466.234 9.50471 468.634 6.21921 471.829 4.12844C475.024 2.03767 479.1 1.00586 484.039 1.00586H496.801C497.25 1.00586 497.491 1.27739 497.491 1.82045V108.26C497.491 108.803 497.267 109.074 496.801 109.074H493.364C493.001 109.074 492.811 108.803 492.811 108.26V60.2263H478.547L463.73 108.586C463.644 108.694 463.54 108.803 463.454 108.911C463.367 109.02 463.229 109.074 463.039 109.074H459.205ZM481.431 55.1215H492.811V6.43643H483.624C477.77 6.43643 473.522 8.41859 470.862 12.3829C468.203 16.3472 466.89 22.5109 466.89 30.874C466.89 38.9113 468.082 44.9664 470.448 49.0393C472.831 53.0851 476.492 55.1215 481.431 55.1215Z" fill="white"/>
<path d="M514.761 109.074C514.294 109.074 514.07 108.803 514.07 108.26V1.82045C514.07 1.27739 514.26 1.00586 514.622 1.00586H543.98C544.429 1.00586 544.671 1.27739 544.671 1.82045V5.62185C544.671 6.16491 544.446 6.43643 543.98 6.43643H518.75V51.1572H542.201C542.564 51.1572 542.754 51.4287 542.754 51.9718V55.6103C542.754 56.1533 542.564 56.4249 542.201 56.4249H518.75V103.617H543.98C544.429 103.617 544.671 103.888 544.671 104.431V108.233C544.671 108.776 544.446 109.047 543.98 109.047H514.761V109.074Z" fill="white"/>
<path d="M571.127 109.074C570.765 109.074 570.575 108.803 570.575 108.26V6.43643H554.393C553.927 6.43643 553.703 6.16491 553.703 5.62185V1.82045C553.703 1.27739 553.927 1.00586 554.393 1.00586H591.436C591.799 1.00586 591.988 1.27739 591.988 1.82045V5.62185C591.988 6.16491 591.799 6.43643 591.436 6.43643H575.255V108.26C575.255 108.803 575.03 109.074 574.564 109.074H571.127Z" fill="white"/>
<path d="M619.826 110.078C613.333 110.078 608.377 107.471 604.94 102.231C601.504 97.0172 599.794 89.2243 599.794 78.8791V31.1987C599.794 20.8534 601.504 13.0877 604.94 7.84718C608.377 2.63383 613.333 0 619.826 0C624.576 0 628.461 1.35764 631.483 4.04578C634.505 6.73391 636.664 10.6168 637.994 15.6672C639.323 20.7176 639.755 26.9357 639.289 34.3212C639.203 34.7557 639.013 34.9729 638.736 34.9729H635.3C634.747 34.9729 634.523 34.7014 634.609 34.1583C635.058 24.5734 634.108 17.405 631.725 12.6261C629.342 7.84718 625.37 5.45773 619.792 5.45773C614.767 5.45773 610.95 7.60281 608.342 11.893C605.735 16.1831 604.44 22.7813 604.44 31.6874V78.3904C604.44 87.1879 605.735 93.7589 608.342 98.1033C610.95 102.448 614.767 104.62 619.792 104.62C625.456 104.62 629.48 102.176 631.863 97.2888C634.246 92.4012 635.248 85.26 634.885 75.9194C634.799 75.3764 634.972 75.1049 635.438 75.1049H638.736C639.185 75.1049 639.427 75.3764 639.427 75.9194C639.876 87.025 638.46 95.4967 635.179 101.335C631.898 107.172 626.769 110.078 619.826 110.078Z" fill="white"/>
<path d="M649.46 109.074C649.098 109.074 649.046 108.694 649.322 107.907L659.753 73.4226C660.478 71.006 661.238 68.5894 662.015 66.1728C662.792 63.7562 663.552 61.3939 664.277 59.0859V58.76C660.34 56.7779 657.387 53.601 655.436 49.2022C653.467 44.8034 652.482 38.7484 652.482 31.0369C652.482 24.113 653.277 18.4109 654.883 13.9578C656.489 9.50471 658.889 6.21921 662.084 4.12844C665.279 2.03767 669.355 1.00586 674.294 1.00586H687.055C687.504 1.00586 687.746 1.27739 687.746 1.82045V108.26C687.746 108.803 687.522 109.074 687.055 109.074H683.619C683.256 109.074 683.066 108.803 683.066 108.26V60.2263H668.802L653.985 108.586C653.899 108.694 653.795 108.803 653.709 108.911C653.622 109.02 653.484 109.074 653.294 109.074H649.46ZM671.669 55.1215H683.049V6.43643H673.862C668.008 6.43643 663.759 8.41859 661.1 12.3829C658.44 16.3472 657.128 22.5109 657.128 30.874C657.128 38.9113 658.319 44.9664 660.685 49.0393C663.086 53.0851 666.73 55.1215 671.669 55.1215Z" fill="white"/>
<path d="M721.197 110.079C720.471 110.079 719.832 110.025 719.28 109.916C718.727 109.807 718.14 109.645 717.501 109.427C717.225 109.319 717.087 108.993 717.087 108.45V104.811C717.087 104.268 717.311 104.051 717.777 104.16C718.416 104.377 718.917 104.513 719.28 104.567C719.642 104.621 720.057 104.648 720.506 104.648C722.336 104.648 723.683 102.721 724.547 98.8648C725.41 95.0091 725.946 88.5739 726.118 79.5591L728.312 1.98336C728.312 1.33169 728.536 1.00586 729.002 1.00586H759.862C760.311 1.00586 760.553 1.27739 760.553 1.82045V108.26C760.553 108.803 760.329 109.074 759.862 109.074H756.564C756.098 109.074 755.873 108.803 755.873 108.26V6.43643H732.974L730.919 79.3691C730.729 86.9719 730.28 92.9998 729.555 97.5343C728.83 102.042 727.794 105.273 726.464 107.201C725.151 109.101 723.39 110.079 721.197 110.079Z" fill="white"/>
<path d="M777.978 109.074C777.512 109.074 777.287 108.803 777.287 108.26V1.82045C777.287 1.27739 777.477 1.00586 777.84 1.00586H807.197C807.646 1.00586 807.888 1.27739 807.888 1.82045V5.62185C807.888 6.16491 807.664 6.43643 807.197 6.43643H781.95V51.1572H805.401C805.764 51.1572 805.954 51.4287 805.954 51.9718V55.6103C805.954 56.1533 805.764 56.4249 805.401 56.4249H781.95V103.617H807.18C807.629 103.617 807.871 103.888 807.871 104.431V108.233C807.871 108.776 807.646 109.047 807.18 109.047H777.978V109.074Z" fill="white"/>
<path d="M822.964 109.074C822.601 109.074 822.412 108.803 822.412 108.26V1.82045C822.412 1.27739 822.601 1.00586 822.964 1.00586H826.401C826.85 1.00586 827.092 1.27739 827.092 1.82045V50.6685H836.693L854.532 1.49461C854.619 1.27739 854.722 1.14162 854.809 1.08732C854.895 1.03301 854.999 1.00586 855.085 1.00586H858.919C859.109 1.00586 859.229 1.08732 859.333 1.25024C859.419 1.41315 859.385 1.71183 859.195 2.14628L840.544 52.8135L861.25 107.934C861.526 108.694 861.388 109.101 860.836 109.101H857.002C856.812 109.101 856.674 109.074 856.587 109.02C856.501 108.966 856.397 108.83 856.311 108.613L836.693 56.1262H827.092V108.287C827.092 108.83 826.867 109.101 826.401 109.101H822.964V109.074Z" fill="white"/>
<path d="M864.117 109.074C863.564 109.074 863.34 108.748 863.426 108.097L882.629 1.65753C882.716 1.22308 882.992 1.00586 883.458 1.00586H888.121C888.57 1.00586 888.846 1.22308 888.95 1.65753L908.153 108.097C908.239 108.748 908.067 109.074 907.601 109.074H903.905C903.542 109.074 903.318 108.857 903.214 108.423L889.64 30.1952C889.002 26.3395 888.38 22.5381 887.793 18.8181C887.206 15.071 886.584 11.3511 885.945 7.60401H885.669C885.116 11.3511 884.546 15.1525 883.959 18.9811C883.372 22.8368 882.698 26.6925 881.973 30.521L868.399 108.423C868.313 108.857 868.037 109.074 867.571 109.074H864.117ZM872.475 79.369L873.442 73.9113H897.999L899.104 79.369H872.475Z" fill="white"/>
<path d="M917.323 109.074C916.96 109.074 916.771 108.803 916.771 108.26V1.82045C916.771 1.27739 916.96 1.00586 917.323 1.00586H928.565C935.698 1.00586 941.12 3.50392 944.816 8.52721C948.511 13.5233 950.376 21.6964 950.376 33.0463C950.376 43.5001 948.701 51.4016 945.368 56.7236C942.035 62.0727 936.561 64.7337 928.98 64.7337H921.433V108.314C921.433 108.857 921.209 109.129 920.742 109.129H917.323V109.074ZM921.451 59.4117H928.583C934.99 59.4117 939.445 57.1852 941.949 52.7321C944.47 48.279 945.714 41.7623 945.714 33.182C945.714 23.7328 944.298 16.8903 941.465 12.7087C938.633 8.52721 934.471 6.43643 928.98 6.43643H921.433V59.4117H921.451Z" fill="white"/>
<path d="M981.375 110.078C974.881 110.078 969.925 107.471 966.488 102.231C963.052 97.0172 961.342 89.2243 961.342 78.8791V31.1987C961.342 20.8534 963.052 13.0877 966.488 7.84718C969.925 2.63383 974.881 0 981.375 0C986.124 0 990.009 1.35764 993.031 4.04578C996.053 6.73391 998.212 10.6168 999.542 15.6672C1000.87 20.7176 1001.3 26.9357 1000.84 34.3212C1000.75 34.7557 1000.56 34.9729 1000.28 34.9729H996.848C996.295 34.9729 996.071 34.7014 996.157 34.1583C996.606 24.5734 995.656 17.405 993.273 12.6261C990.89 7.84718 986.918 5.45773 981.34 5.45773C976.315 5.45773 972.498 7.60281 969.891 11.893C967.283 16.1831 965.988 22.7813 965.988 31.6874V78.3904C965.988 87.1879 967.283 93.7589 969.891 98.1033C972.498 102.448 976.315 104.62 981.34 104.62C987.004 104.62 991.028 102.176 993.411 97.2888C995.794 92.4012 996.796 85.26 996.433 75.9194C996.347 75.3764 996.52 75.1049 996.986 75.1049H1000.28C1000.73 75.1049 1000.98 75.3764 1000.98 75.9194C1001.42 87.025 1000.01 95.4967 996.727 101.335C993.446 107.172 988.334 110.078 981.375 110.078Z" fill="white"/>
<path d="M1026.65 109.074C1026.29 109.074 1026.1 108.803 1026.1 108.26V6.43643H1009.92C1009.45 6.43643 1009.23 6.16491 1009.23 5.62185V1.82045C1009.23 1.27739 1009.45 1.00586 1009.92 1.00586H1046.96C1047.33 1.00586 1047.52 1.27739 1047.52 1.82045V5.62185C1047.52 6.16491 1047.33 6.43643 1046.96 6.43643H1030.78V108.26C1030.78 108.803 1030.56 109.074 1030.09 109.074H1026.65Z" fill="white"/>
<path d="M1059.43 109.074C1058.97 109.074 1058.74 108.803 1058.74 108.26V1.82045C1058.74 1.27739 1058.97 1.00586 1059.43 1.00586H1072.06C1078.82 1.00586 1083.8 3.15094 1087.01 7.44109C1090.21 11.7312 1091.81 18.3294 1091.81 27.2355C1091.81 33.5079 1090.91 38.857 1089.13 43.2557C1087.36 47.6545 1084.82 50.7499 1081.52 52.4877V52.8135C1085.63 54.2527 1088.79 57.2123 1090.98 61.7197C1093.18 66.2271 1094.28 71.9563 1094.28 78.8803C1094.28 89.0083 1092.54 96.5568 1089.07 101.58C1085.59 106.576 1080.33 109.101 1073.3 109.101H1059.43V109.074ZM1063.4 50.5056H1073.7C1077.89 50.5056 1081.19 48.4962 1083.57 44.4776C1085.96 40.459 1087.13 34.947 1087.13 27.8872C1087.13 20.5288 1085.94 15.0982 1083.57 11.6226C1081.19 8.14707 1077.44 6.43643 1072.33 6.43643H1063.42V50.5056H1063.4ZM1063.4 103.644H1072.87C1078.72 103.644 1082.97 101.662 1085.63 97.6973C1088.29 93.7329 1089.6 87.352 1089.6 78.5545C1089.6 71.196 1088.27 65.5754 1085.63 61.7197C1082.97 57.864 1079.14 55.9361 1074.11 55.9361H1063.4V103.644Z" fill="white"/>
<path d="M1108.39 109.074C1107.92 109.074 1107.7 108.803 1107.7 108.26V1.82045C1107.7 1.27739 1107.89 1.00586 1108.25 1.00586H1137.61C1138.06 1.00586 1138.3 1.27739 1138.3 1.82045V5.62185C1138.3 6.16491 1138.08 6.43643 1137.61 6.43643H1112.38V51.1572H1135.83C1136.19 51.1572 1136.38 51.4287 1136.38 51.9718V55.6103C1136.38 56.1533 1136.19 56.4249 1135.83 56.4249H1112.38V103.617H1137.61C1138.06 103.617 1138.3 103.888 1138.3 104.431V108.233C1138.3 108.776 1138.08 109.047 1137.61 109.047H1108.39V109.074Z" fill="white"/>
<path d="M1153.38 109.074C1153.01 109.074 1152.82 108.803 1152.82 108.26V1.82045C1152.82 1.27739 1153.01 1.00586 1153.38 1.00586H1156.81C1157.26 1.00586 1157.5 1.27739 1157.5 1.82045V50.5055H1187.28V1.82045C1187.28 1.27739 1187.5 1.00586 1187.97 1.00586H1191.26C1191.71 1.00586 1191.96 1.27739 1191.96 1.82045V108.26C1191.96 108.803 1191.73 109.074 1191.26 109.074H1187.97C1187.5 109.074 1187.28 108.803 1187.28 108.26V55.7732H1157.5V108.26C1157.5 108.803 1157.28 109.074 1156.81 109.074H1153.38Z" fill="white"/>
<path d="M1209.21 109.074C1208.84 109.074 1208.65 108.803 1208.65 108.26V1.82045C1208.65 1.27739 1208.84 1.00586 1209.21 1.00586H1212.64C1213.09 1.00586 1213.33 1.27739 1213.33 1.82045V50.5055H1243.11V1.82045C1243.11 1.27739 1243.33 1.00586 1243.8 1.00586H1247.1C1247.54 1.00586 1247.79 1.27739 1247.79 1.82045V108.26C1247.79 108.803 1247.56 109.074 1247.1 109.074H1243.8C1243.33 109.074 1243.11 108.803 1243.11 108.26V55.7732H1213.33V108.26C1213.33 108.803 1213.11 109.074 1212.64 109.074H1209.21Z" fill="white"/>
<path d="M1265.04 109.074C1264.68 109.074 1264.49 108.803 1264.49 108.26V1.82045C1264.49 1.27739 1264.68 1.00586 1265.04 1.00586H1268.48C1268.92 1.00586 1269.17 1.27739 1269.17 1.82045V45.0478H1275.47C1283.79 45.0478 1289.87 47.5187 1293.71 52.4606C1297.54 57.4024 1299.47 65.0595 1299.47 75.4047C1299.47 87.0533 1297.66 95.6065 1294.05 100.983C1290.44 106.386 1284.57 109.074 1276.42 109.074H1265.04ZM1269.15 103.644H1276.28C1282.95 103.644 1287.73 101.444 1290.61 97.0456C1293.5 92.6468 1294.88 85.4513 1294.79 75.4319C1294.79 66.8516 1293.29 60.525 1290.27 56.452C1287.25 52.3791 1282.31 50.3426 1275.45 50.3426H1269.15V103.644ZM1312.36 109.074C1311.99 109.074 1311.8 108.803 1311.8 108.26V1.82045C1311.8 1.27739 1311.99 1.00586 1312.36 1.00586H1315.79C1316.24 1.00586 1316.48 1.27739 1316.48 1.82045V108.26C1316.48 108.803 1316.26 109.074 1315.79 109.074H1312.36Z" fill="white"/>
<path d="M1332.65 109.074C1332.18 109.074 1331.96 108.803 1331.96 108.26L1333.32 1.82045C1333.32 1.27739 1333.55 1.00586 1334.01 1.00586H1339.5C1339.87 1.00586 1340.09 1.22308 1340.19 1.65753L1357.62 75.5948L1375.18 1.65753C1375.27 1.22308 1375.54 1.00586 1376.01 1.00586H1381.36C1381.73 1.00586 1381.92 1.27739 1381.92 1.82045L1383.28 108.26C1383.28 108.803 1383.09 109.074 1382.73 109.074H1379.29C1378.83 109.074 1378.6 108.803 1378.6 108.26L1377.77 30.0323C1377.77 26.7196 1377.77 23.2984 1377.77 19.7142C1377.77 16.13 1377.77 12.6544 1377.77 9.23318H1377.63C1376.99 12.4372 1376.27 15.6956 1375.44 19.0625C1374.61 22.4295 1373.83 25.6878 1373.11 28.8919L1358.57 89.4699C1358.48 89.9044 1358.21 90.1216 1357.74 90.1216H1357.46C1357.1 90.1216 1356.88 89.9044 1356.77 89.4699L1341.96 28.2402C1341.23 25.1719 1340.49 22.0222 1339.76 18.8453C1339.04 15.6684 1338.35 12.4644 1337.71 9.28749H1337.43C1337.43 12.6001 1337.45 15.9399 1337.5 19.3612C1337.55 22.7825 1337.52 26.068 1337.43 29.272L1336.64 108.26C1336.64 108.803 1336.45 109.074 1336.08 109.074H1332.65Z" fill="white"/>
<path d="M1437.18 110.078C1430.68 110.078 1425.73 107.471 1422.29 102.231C1418.86 97.0172 1417.15 89.2243 1417.15 78.8791V31.1987C1417.15 20.8534 1418.86 13.0877 1422.29 7.84718C1425.73 2.63383 1430.68 0 1437.18 0C1441.93 0 1445.81 1.35764 1448.83 4.04578C1451.86 6.73391 1454.02 10.6168 1455.35 15.6672C1456.67 20.7176 1457.11 26.9357 1456.64 34.3212C1456.55 34.7557 1456.36 34.9729 1456.09 34.9729H1452.65C1452.1 34.9729 1451.87 34.7014 1451.96 34.1583C1452.41 24.5734 1451.46 17.405 1449.08 12.6261C1446.69 7.84718 1442.72 5.45773 1437.14 5.45773C1432.12 5.45773 1428.3 7.60281 1425.69 11.893C1423.09 16.1831 1421.79 22.7813 1421.79 31.6874V78.3904C1421.79 87.1879 1423.09 93.7589 1425.69 98.1033C1428.3 102.448 1432.12 104.62 1437.14 104.62C1442.81 104.62 1446.83 102.176 1449.21 97.2888C1451.6 92.4012 1452.6 85.26 1452.24 75.9194C1452.15 75.3764 1452.32 75.1049 1452.79 75.1049H1456.09C1456.54 75.1049 1456.78 75.3764 1456.78 75.9194C1457.23 87.025 1455.81 95.4967 1452.53 101.335C1449.25 107.172 1444.12 110.078 1437.18 110.078Z" fill="white"/>
<path d="M1472.56 109.074C1472.2 109.074 1472.01 108.803 1472.01 108.26V1.82045C1472.01 1.27739 1472.2 1.00586 1472.56 1.00586H1483.8C1490.94 1.00586 1496.36 3.50392 1500.06 8.52721C1503.75 13.5233 1505.62 21.6964 1505.62 33.0463C1505.62 43.5001 1503.94 51.4016 1500.61 56.7236C1497.27 62.0727 1491.8 64.7337 1484.22 64.7337H1476.67V108.314C1476.67 108.857 1476.45 109.129 1475.98 109.129H1472.56V109.074ZM1476.67 59.4117H1483.8C1490.21 59.4117 1494.67 57.1852 1497.17 52.7321C1499.69 48.279 1500.94 41.7623 1500.94 33.182C1500.94 23.7328 1499.52 16.8903 1496.69 12.7087C1493.86 8.52721 1489.69 6.43643 1484.2 6.43643H1476.66V59.4117H1476.67Z" fill="white"/>
<path d="M1518.64 109.074C1518.17 109.074 1517.95 108.803 1517.95 108.26V1.82045C1517.95 1.27739 1518.14 1.00586 1518.5 1.00586H1547.86C1548.31 1.00586 1548.55 1.27739 1548.55 1.82045V5.62185C1548.55 6.16491 1548.32 6.43643 1547.86 6.43643H1522.63V51.1572H1546.08C1546.44 51.1572 1546.63 51.4287 1546.63 51.9718V55.6103C1546.63 56.1533 1546.44 56.4249 1546.08 56.4249H1522.63V103.617H1547.86C1548.31 103.617 1548.55 103.888 1548.55 104.431V108.233C1548.55 108.776 1548.32 109.047 1547.86 109.047H1518.64V109.074Z" fill="white"/>
<path d="M1557.04 134.001C1556.68 134.001 1556.49 133.729 1556.49 133.186V104.458C1556.49 103.915 1556.68 103.644 1557.04 103.644H1604.78C1605.22 103.644 1605.47 103.915 1605.47 104.458V133.186C1605.47 133.729 1605.24 134.001 1604.78 134.001H1601.34C1600.98 134.001 1600.79 133.729 1600.79 133.186V109.101H1561.15V133.186C1561.15 133.729 1560.93 134.001 1560.46 134.001H1557.04ZM1562.95 108.097L1560.07 105.137C1561.34 103.807 1562.35 101.146 1563.09 97.127C1563.81 93.1084 1564.28 87.6507 1564.45 80.6995L1566.65 1.98336C1566.65 1.33169 1566.84 1.00586 1567.2 1.00586H1598.47C1598.84 1.11447 1599.03 1.44031 1599.03 1.98336V108.26C1599.03 108.803 1598.89 109.074 1598.61 109.074H1594.78C1594.5 109.074 1594.36 108.803 1594.36 108.26V6.43643H1571.19L1569.13 80.3737C1569.05 85.6414 1568.72 90.1216 1568.17 93.7329C1567.61 97.3714 1566.9 100.304 1566.04 102.558C1565.16 104.811 1564.14 106.658 1562.95 108.097Z" fill="white"/>
<path d="M1634.82 110.078C1628.33 110.078 1623.37 107.471 1619.94 102.231C1616.5 97.0172 1614.79 89.2243 1614.79 78.8791V31.1987C1614.79 20.8534 1616.5 13.0877 1619.94 7.84718C1623.37 2.63383 1628.33 0 1634.82 0C1639.57 0 1643.46 1.35764 1646.48 4.04578C1649.5 6.73391 1651.66 10.6168 1652.99 15.6672C1654.32 20.7176 1654.75 26.9357 1654.29 34.3212C1654.2 34.7557 1654.01 34.9729 1653.73 34.9729H1650.3C1649.74 34.9729 1649.52 34.7014 1649.61 34.1583C1650.06 24.5734 1649.11 17.405 1646.72 12.6261C1644.34 7.84718 1640.37 5.45773 1634.79 5.45773C1629.76 5.45773 1625.95 7.60281 1623.34 11.893C1620.73 16.1831 1619.44 22.7813 1619.44 31.6874V78.3904C1619.44 87.1879 1620.73 93.7589 1623.34 98.1033C1625.95 102.448 1629.76 104.62 1634.79 104.62C1640.45 104.62 1644.48 102.176 1646.86 97.2888C1649.24 92.4012 1650.25 85.26 1649.88 75.9194C1649.8 75.3764 1649.97 75.1049 1650.44 75.1049H1653.73C1654.18 75.1049 1654.42 75.3764 1654.42 75.9194C1654.87 87.025 1653.46 95.4967 1650.18 101.335C1646.9 107.172 1641.77 110.078 1634.82 110.078Z" fill="white"/>
<path d="M1680.09 109.074C1679.72 109.074 1679.53 108.803 1679.53 108.26V6.43643H1663.35C1662.89 6.43643 1662.66 6.16491 1662.66 5.62185V1.82045C1662.66 1.27739 1662.89 1.00586 1663.35 1.00586H1700.4C1700.76 1.00586 1700.95 1.27739 1700.95 1.82045V5.62185C1700.95 6.16491 1700.76 6.43643 1700.4 6.43643H1684.21V108.26C1684.21 108.803 1683.99 109.074 1683.52 109.074H1680.09Z" fill="white"/>
<path d="M1712.86 109.074C1712.4 109.074 1712.17 108.803 1712.17 108.26V1.82045C1712.17 1.27739 1712.4 1.00586 1712.86 1.00586H1725.49C1732.26 1.00586 1737.23 3.15094 1740.44 7.44109C1743.64 11.7312 1745.24 18.3294 1745.24 27.2355C1745.24 33.5079 1744.35 38.857 1742.57 43.2557C1740.79 47.6545 1738.25 50.7499 1734.95 52.4877V52.8135C1739.06 54.2527 1742.22 57.2123 1744.41 61.7197C1746.61 66.2271 1747.71 71.9563 1747.71 78.8803C1747.71 89.0083 1745.97 96.5568 1742.5 101.58C1739.03 106.576 1733.76 109.101 1726.73 109.101H1712.86V109.074ZM1716.84 50.5056H1727.13C1731.32 50.5056 1734.62 48.4962 1737.01 44.4776C1739.39 40.459 1740.56 34.947 1740.56 27.8872C1740.56 20.5288 1739.37 15.0982 1737.01 11.6226C1734.62 8.14707 1730.88 6.43643 1725.76 6.43643H1716.85V50.5056H1716.84ZM1716.84 103.644H1726.3C1732.15 103.644 1736.4 101.662 1739.06 97.6973C1741.72 93.7329 1743.03 87.352 1743.03 78.5545C1743.03 71.196 1741.7 65.5754 1739.06 61.7197C1736.4 57.864 1732.57 55.9361 1727.54 55.9361H1716.84V103.644Z" fill="white"/>
<path d="M1779.8 110.078C1773.39 110.078 1768.45 107.607 1764.98 102.665C1761.51 97.7232 1759.77 90.2833 1759.77 80.3725V29.8682C1759.77 19.7401 1761.51 12.2459 1764.98 7.33128C1768.45 2.44376 1773.39 0 1779.8 0C1786.29 0 1791.27 2.44376 1794.75 7.33128C1798.23 12.2188 1799.97 19.7401 1799.97 29.8682V80.3725C1799.97 90.2833 1798.23 97.6961 1794.75 102.665C1791.28 107.607 1786.29 110.078 1779.8 110.078ZM1779.8 104.62C1784.82 104.62 1788.68 102.611 1791.32 98.5921C1793.98 94.5735 1795.29 88.3826 1795.29 80.0195V30.194C1795.29 21.7223 1793.96 15.4771 1791.32 11.4585C1788.66 7.43989 1784.82 5.43058 1779.8 5.43058C1774.77 5.43058 1770.96 7.43989 1768.35 11.4585C1765.74 15.4771 1764.45 21.7223 1764.45 30.194V80.0195C1764.45 88.3826 1765.74 94.5735 1768.35 98.5921C1770.96 102.611 1774.77 104.62 1779.8 104.62Z" fill="white"/>
<path d="M1814.91 109.074C1814.44 109.074 1814.22 108.803 1814.22 108.26L1815.58 1.82045C1815.58 1.27739 1815.81 1.00586 1816.27 1.00586H1821.76C1822.13 1.00586 1822.35 1.22308 1822.45 1.65753L1839.88 75.5948L1857.44 1.65753C1857.53 1.22308 1857.8 1.00586 1858.27 1.00586H1863.62C1863.99 1.00586 1864.18 1.27739 1864.18 1.82045L1865.54 108.26C1865.54 108.803 1865.35 109.074 1864.99 109.074H1861.55C1861.09 109.074 1860.86 108.803 1860.86 108.26L1860.03 30.0323C1860.03 26.7196 1860.03 23.2984 1860.03 19.7142C1860.03 16.13 1860.03 12.6544 1860.03 9.23318H1859.89C1859.25 12.4372 1858.53 15.6956 1857.7 19.0625C1856.87 22.4295 1856.09 25.6878 1855.37 28.8919L1840.83 89.4699C1840.74 89.9044 1840.47 90.1216 1840 90.1216H1839.72C1839.36 90.1216 1839.14 89.9044 1839.03 89.4699L1824.22 28.2402C1823.49 25.1719 1822.75 22.0222 1822.02 18.8453C1821.3 15.6684 1820.61 12.4644 1819.97 9.28749H1819.69C1819.69 12.6001 1819.71 15.9399 1819.76 19.3612C1819.81 22.7825 1819.78 26.068 1819.69 29.272L1818.86 108.314C1818.86 108.857 1818.67 109.129 1818.31 109.129H1814.91V109.074Z" fill="white"/>
<path d="M1879.15 110.756C1877.96 110.756 1877.04 110.348 1876.4 109.507C1875.76 108.692 1875.44 107.552 1875.44 106.113V104.945C1875.44 103.506 1875.75 102.42 1876.4 101.632C1877.04 100.872 1877.96 100.465 1879.15 100.465C1880.34 100.465 1881.27 100.845 1881.96 101.632C1882.65 102.393 1883 103.506 1883 104.945V106.113C1883 107.552 1882.65 108.665 1881.96 109.507C1881.27 110.348 1880.34 110.756 1879.15 110.756Z" fill="white"/>
</g>
</svg>
