<svg width="188" height="59" viewBox="0 0 188 59" fill="none" xmlns="http://www.w3.org/2000/svg">
<path d="M24.2174 58.4463C22.447 58.4463 20.665 57.9372 19.0913 56.8726L19.0219 56.8147C17.3325 55.5535 16.8118 54.1649 16.3837 53.0541C16.0134 52.0821 15.782 51.4573 14.7637 50.7167C13.757 49.9877 13.0859 49.953 12.056 49.9067C10.8642 49.8489 9.39464 49.7794 7.67053 48.5645L7.6011 48.5066C4.24545 45.8799 3.19246 41.3903 4.82401 37.6296C1.07493 35.6162 -0.845895 31.2423 0.357513 27.0304L0.380655 26.9378C1.06336 24.936 2.22048 24.0219 3.14618 23.2813C3.95617 22.6333 4.48844 22.2052 4.87029 21.0249C5.25214 19.8447 5.07857 19.1851 4.80087 18.19C4.48844 17.0444 4.09502 15.6212 4.71987 13.6078L4.75458 13.5152C6.21256 9.51155 10.1699 7.12788 14.243 7.50973C14.9951 3.35566 18.5706 0.161997 22.9561 0H23.0024H23.0487C25.1662 0.0231425 26.3928 0.833129 27.3879 1.49269C28.2442 2.05968 28.8227 2.42996 30.0609 2.42996C31.299 2.42996 31.8775 2.05968 32.7338 1.49269C33.7174 0.833129 34.9555 0.0231425 37.073 0H37.1193H37.1656C41.4238 0.150426 44.9067 3.17052 45.8093 7.17416C50.0097 6.61874 54.1522 9.02556 55.6448 13.1449L55.668 13.2259C56.2928 15.2393 55.911 16.6741 55.5986 17.8081C55.3209 18.8033 55.1473 19.4628 55.5291 20.6431C55.911 21.8233 56.4433 22.2515 57.2532 22.8995C58.1789 23.64 59.3361 24.5657 60.0072 26.5675L60.0419 26.6601C61.199 30.7563 59.4171 35.003 55.8878 37.0974C57.7161 40.9274 56.6978 45.6022 53.2496 48.2983L53.1802 48.3562C51.4561 49.5827 49.9749 49.6521 48.7831 49.71C47.7533 49.7563 47.0706 49.791 46.0754 50.52C45.0687 51.249 44.8257 51.8854 44.4555 52.8574C44.0389 53.9682 43.5182 55.3568 41.8172 56.618L41.7478 56.6759C38.2186 59.0596 33.6132 58.6661 30.5353 55.9585C28.7996 57.6132 26.5085 58.4926 24.1942 58.4926L24.2174 58.4463Z" fill="white"/>
<path d="M19.3228 12.3815C19.427 12.5551 19.67 12.9369 19.8898 13.3072C20.0171 13.5271 22.0421 17.3919 23.1876 19.5673C23.7778 20.1805 24.1828 20.5855 24.1828 20.5855C25.7333 22.1824 27.631 23.6288 30.0609 23.6635C32.4909 23.6288 34.3886 22.1824 35.9391 20.5855C35.9391 20.5855 36.4251 20.0995 37.1078 19.3937C38.2187 17.2646 40.3825 13.1452 40.5098 12.9138C40.7296 12.5435 40.9726 12.1617 41.0768 11.9881C41.7132 10.993 42.8472 10.0904 44.1431 9.54658C44.1431 9.39615 44.1547 9.23415 44.1431 9.08373C44.0969 5.16108 40.9726 2.00214 37.0963 1.86328C33.8795 1.90957 33.567 4.29324 30.0609 4.29324C26.5549 4.29324 26.2424 1.89799 23.0256 1.86328C19.1493 2.00214 16.025 5.16108 15.9788 9.08373C15.9788 9.32672 15.9788 9.56972 16.0019 9.82429C17.402 10.3566 18.6633 11.3054 19.3344 12.37L19.3228 12.3815Z" fill="url(#paint0_radial_7_14756)"/>
<path d="M11.0146 34.3201C11.2114 34.2739 11.6511 34.1581 12.0676 34.0656C12.3222 34.0077 16.6151 33.2787 19.0451 32.8737C19.8088 32.5035 20.3295 32.2373 20.3295 32.2373C22.3313 31.2538 24.2984 29.8999 25.0737 27.5973C25.8027 25.283 25.0043 23.0266 23.9628 21.0595C23.9628 21.0595 23.6504 20.4578 23.1991 19.5784C21.5097 17.8543 18.2698 14.5333 18.0962 14.3366C17.807 14.0126 17.5177 13.6655 17.3904 13.5035C16.6267 12.5894 16.1291 11.224 16.0134 9.83542C15.8746 9.77756 15.7357 9.73128 15.5853 9.68499C11.8362 8.5163 7.86727 10.5066 6.53658 14.1631C5.57616 17.2294 7.76313 18.2708 6.67543 21.6034C5.58774 24.9474 3.21563 24.4962 2.18579 27.5394C1.12124 31.2769 3.15778 35.2227 6.87214 36.484C7.10357 36.5534 7.34656 36.6228 7.57799 36.6807C8.52683 35.512 9.81123 34.621 11.0262 34.3086L11.0146 34.3201Z" fill="url(#paint1_radial_7_14756)"/>
<path d="M48.9104 36.1374C48.7253 36.068 48.2971 35.8944 47.9037 35.7208C47.6723 35.6167 43.7612 33.6843 41.5511 32.5966C40.718 32.4462 40.151 32.3536 40.151 32.3536C37.9524 31.9718 35.5688 31.9023 33.5785 33.314C31.6345 34.7604 30.9518 37.0515 30.6394 39.2616C30.6394 39.2616 30.5468 39.9328 30.3964 40.9048C30.7551 43.2884 31.4263 47.8822 31.4494 48.1483C31.4957 48.5765 31.5188 49.0278 31.5304 49.236C31.5998 50.4163 31.218 51.8164 30.489 53.0198C30.57 53.1471 30.651 53.2744 30.7436 53.4017C33.0925 56.5491 37.478 57.2665 40.6948 55.0911C43.2752 53.1703 42.1181 51.0527 44.9646 48.993C47.7996 46.9218 49.4542 48.6806 52.0925 46.8177C55.1473 44.4224 55.8184 40.0253 53.5505 36.8317C53.4116 36.6234 53.2496 36.4383 53.0876 36.2531C51.6412 36.6465 50.0675 36.6118 48.8988 36.149L48.9104 36.1374Z" fill="url(#paint2_radial_7_14756)"/>
<path d="M58.2368 27.1692C57.1954 24.126 54.8349 24.5657 53.7472 21.2332C52.6595 17.8891 54.8465 16.8592 53.886 13.7929C52.5554 10.1479 48.5864 8.14611 44.8373 9.3148C44.6059 9.38423 44.3629 9.4768 44.1431 9.56937C44.0736 11.0621 43.5529 12.5432 42.7429 13.5152C42.6157 13.6656 42.3264 14.0243 42.0371 14.3483C41.8635 14.5334 38.8203 17.6577 37.0962 19.4165C36.7028 20.1686 36.4366 20.6778 36.4366 20.6778C35.3952 22.6449 34.5968 24.9013 35.3258 27.2155C36.1011 29.5182 38.0682 30.872 40.07 31.8556C40.07 31.8556 40.6833 32.1564 41.5627 32.5961C43.9348 33.0011 48.5054 33.7764 48.7716 33.8342C49.1881 33.9268 49.6278 34.0425 49.8245 34.0888C50.9701 34.3781 52.1735 35.1881 53.0992 36.2526C53.2496 36.2063 53.4001 36.1716 53.5389 36.1253C57.2533 34.8641 59.2898 30.9183 58.2253 27.1808L58.2368 27.1692Z" fill="url(#paint3_radial_7_14756)"/>
<path d="M18.0731 14.3373C18.2582 14.534 21.4982 17.8549 23.1876 19.5791C22.042 17.4037 20.017 13.5389 19.8898 13.319C19.6699 12.9487 19.4269 12.5669 19.3228 12.3933C18.6516 11.3288 17.402 10.3799 16.0018 9.84766C16.1291 11.2478 16.6267 12.6132 17.3788 13.5157C17.5061 13.6662 17.7954 14.0249 18.0847 14.3489L18.0731 14.3373Z" fill="url(#paint4_radial_7_14756)"/>
<path d="M11.4775 36.5188C11.6626 36.4494 12.0908 36.2758 12.4842 36.1023C12.7272 35.9981 16.8928 33.9269 19.0451 32.8623C16.6151 33.2789 12.3222 34.0079 12.0676 34.0541C11.6511 34.1467 11.2113 34.2624 11.0146 34.3087C9.79965 34.6211 8.51525 35.5121 7.56641 36.6808C8.93181 36.9932 10.3898 36.9469 11.4891 36.5072L11.4775 36.5188Z" fill="url(#paint5_radial_7_14756)"/>
<path d="M31.542 49.2239C31.5189 49.0156 31.4957 48.5643 31.461 48.1362C31.4379 47.87 30.7667 43.2763 30.408 40.8926C30.0493 43.3341 29.4245 47.6502 29.3898 47.8932C29.3435 48.3213 29.3203 48.7726 29.3088 48.9809C29.2278 50.2306 29.679 51.7464 30.5006 52.9961C31.218 51.7927 31.6114 50.3926 31.542 49.2123V49.2239Z" fill="url(#paint6_radial_7_14756)"/>
<path d="M41.0652 12.0001C40.961 12.1737 40.7065 12.5555 40.4982 12.9258C40.3709 13.1572 38.2071 17.265 37.0963 19.4057C38.8204 17.6469 41.8636 14.5227 42.0372 14.3375C42.3264 14.0135 42.6157 13.6664 42.743 13.5044C43.553 12.5324 44.0621 11.0513 44.1431 9.55859C42.8472 10.1024 41.7132 11.005 41.0768 12.0001H41.0652Z" fill="url(#paint7_radial_7_14756)"/>
<path d="M49.8245 34.0777C49.6278 34.0314 49.1881 33.9157 48.7716 33.8231C48.517 33.7652 43.9348 32.99 41.5627 32.585C43.7728 33.6727 47.6723 35.6166 47.9037 35.7092C48.2971 35.8828 48.7253 36.0448 48.9104 36.1258C50.0791 36.6002 51.6528 36.6233 53.0876 36.2299C52.1735 35.1653 50.9701 34.3669 49.8245 34.0661V34.0777Z" fill="url(#paint8_radial_7_14756)"/>
<path d="M29.2972 48.9931C29.3088 48.7848 29.3435 48.3335 29.3782 47.9054C29.4014 47.6508 30.0378 43.3348 30.3965 40.9048C30.2808 40.0601 30.1882 39.4931 30.1882 39.4931C29.8758 37.2946 29.1931 34.9919 27.2375 33.5455C25.2589 32.1454 22.8636 32.2032 20.6767 32.5851C20.6767 32.5851 20.0055 32.7008 19.0335 32.8628C16.8813 33.9274 12.7156 35.987 12.4726 36.1027C12.0908 36.2763 11.6511 36.4383 11.466 36.5193C10.3667 36.959 8.92028 37.0053 7.5433 36.6929C7.45073 36.8086 7.35816 36.9359 7.26559 37.0632C4.99763 40.2684 5.66876 44.6539 8.72357 47.0491C11.3502 48.9121 13.0049 47.1533 15.8399 49.2129C18.6864 51.2726 17.5293 53.3902 20.1097 55.311C23.3265 57.4864 27.712 56.7574 30.0609 53.6216C30.2113 53.4249 30.3502 53.2166 30.4775 53.0083C29.6559 51.7586 29.2046 50.2428 29.2856 48.9931H29.2972Z" fill="url(#paint9_radial_7_14756)"/>
<path fill-rule="evenodd" clip-rule="evenodd" d="M79.794 18.5025L79.4469 17.0561H70.6759L70.3287 18.5025C69.2295 23.2004 67.7021 24.8435 64.1613 24.8435V24.3344C64.7745 24.1724 65.4109 23.0616 66.5681 18.3636L68.6625 9.98606C69.5072 6.56098 71.4974 4.64016 75.0614 4.64016C78.6253 4.64016 80.6155 6.56098 81.4602 9.98606L83.5546 18.3636C84.7118 23.0731 85.3366 24.1724 85.9615 24.3344V24.8435C82.4322 24.8435 80.8933 23.212 79.794 18.5025ZM77.9542 10.2869C77.445 8.07681 76.5888 7.56768 75.0614 7.56768C73.534 7.56768 72.6892 8.07681 72.1685 10.2869L71.2891 14.1633H78.822L77.9426 10.2869H77.9542ZM105.656 18.2016C105.656 23.6517 106.35 23.941 106.975 24.0914V24.6005C103.723 24.8435 101.849 24.0914 101.849 18.5951V12.3813C101.849 8.84051 100.472 7.57925 97.3244 7.57925C96.0747 7.57925 93.9109 7.90324 92.2678 8.7248V24.5658H87.4541V24.0567C88.3336 23.8831 88.5881 23.2351 88.5881 19.3588V10.2406C88.5881 6.36427 88.3336 5.70471 87.4541 5.54271V5.03358H92.0711V6.17913C93.7373 5.43857 96.1904 4.64016 97.8335 4.64016C104.256 4.64016 105.667 7.98424 105.667 12.1152L105.644 18.2248L105.656 18.2016ZM118.801 7.9611H118.291V19.3472C118.291 23.2814 118.546 23.9294 119.564 24.0451V24.5542H113.339V24.0451C114.357 23.9294 114.612 23.2814 114.612 19.3472V7.97267H112.598C109.092 7.97267 108.074 8.14624 107.901 9.10665H107.391V5.03358H117.956C123.95 5.03358 125.431 4.5823 126.368 3.76074L126.796 4.03845C125.037 7.23211 122.457 7.97267 118.812 7.97267L118.801 7.9611ZM136.875 24.5542H127.213V24.0451C128.092 23.8715 128.358 23.2235 128.358 19.3472V10.2291C128.358 6.3527 128.104 5.69314 127.213 5.53114V5.02201H142.105V9.09508H141.584C141.422 8.13467 140.404 7.9611 136.886 7.9611H132.015V13.1682H140.369V16.1072H132.015V21.6036H136.053C141.874 21.7656 143.17 21.187 144.107 20.2729L144.523 20.5506C142.846 23.8484 141.214 24.5427 136.863 24.5427L136.875 24.5542ZM181.077 18.5025L180.741 17.0561H171.959L171.612 18.5025C170.512 23.2004 168.973 24.8435 165.444 24.8435V24.3344C166.069 24.1724 166.694 23.0616 167.851 18.3636L169.945 9.98606C170.802 6.56098 172.78 4.64016 176.344 4.64016C179.908 4.64016 181.899 6.56098 182.743 9.98606L184.838 18.3636C186.006 23.0731 186.62 24.1724 187.244 24.3344V24.8435C183.704 24.8435 182.176 23.212 181.077 18.5025ZM179.226 10.2869C178.716 8.07681 177.86 7.56768 176.333 7.56768C174.805 7.56768 173.961 8.07681 173.452 10.2869L172.572 14.1633H180.105L179.226 10.2869ZM155.273 14.2443V14.3021C157.692 14.765 159.011 16.223 160.85 19.3935C162.991 23.0731 163.882 24.2997 164.727 24.4154V24.9245C160.538 25.1212 159.427 24.9824 156.731 19.7059C155.354 17.0098 154.324 16.1651 152.832 15.9452C152.126 16.4197 151.223 16.8941 151.223 17.8314V24.5774L146.421 24.5542V24.0451C147.301 23.8831 147.555 23.2351 147.578 19.3472L147.613 10.2291C147.636 6.3527 147.382 5.69314 146.502 5.51957V5.01043L151.316 5.03358L151.293 14.036H151.362C151.871 13.4227 152.519 12.8557 153.248 12.335L156.604 9.83564C161.441 6.29484 161.984 5.21872 162.262 4.00374L162.771 3.9806C163.234 7.60239 162.343 9.34965 159.369 11.4325L158.548 12.0342L155.25 14.2327L155.273 14.2443Z" fill="white"/>
<path fill-rule="evenodd" clip-rule="evenodd" d="M151.547 47.1988C152.809 53.0539 155.007 55.102 159.416 55.102V54.4656C158.64 54.2573 157.9 52.8803 156.407 47.0253L153.804 36.5764C152.785 32.5149 150.448 29.9114 145.935 29.9114C141.422 29.9114 139.085 32.5265 138.067 36.5764L135.463 47.0253C133.982 52.8803 133.242 54.2573 132.455 54.4656V55.102C136.875 55.102 139.062 53.0539 140.323 47.1988L142.614 36.6806C143.147 34.2159 144.234 33.5795 145.935 33.5795C147.636 33.5795 148.724 34.2159 149.256 36.6806L151.547 47.1988ZM77.2599 34.0771H72.9554V42.4083H77.2599C79.4816 42.4083 81.4256 40.8231 81.4256 38.2427C81.4256 35.6623 79.4816 34.0771 77.2599 34.0771ZM72.967 46.9443C72.967 53.5399 71.3355 54.7896 66.9268 54.778V54.1416C67.7252 53.9449 68.3732 53.5861 68.3732 46.7013V36.912C68.3732 32.0752 68.0492 31.2652 66.9615 31.057V30.4205H78.2898C82.7331 30.4205 86.1235 33.7299 86.1235 38.2543C86.1235 42.7786 82.7331 46.088 78.2898 46.088H72.967V46.9558V46.9443ZM179.584 47.2104L179.156 45.4053H168.221L167.805 47.2104C166.428 53.0654 164.519 55.1135 160.11 55.1135V54.4771C160.885 54.2688 161.66 52.8919 163.107 47.0368L165.722 36.588C166.775 32.3182 169.251 29.923 173.695 29.923C178.138 29.923 180.614 32.3182 181.667 36.588L184.282 47.0368C185.729 52.8919 186.504 54.2688 187.279 54.4771V55.1135C182.871 55.1135 180.961 53.0654 179.584 47.2104ZM177.293 36.9814C176.657 34.2275 175.592 33.5911 173.695 33.5911C171.797 33.5911 170.732 34.2275 170.096 36.9814L168.997 41.8066H178.381L177.293 36.9814ZM90.4164 36.7847C90.4164 31.9479 90.2891 31.2537 89.0626 30.9297V30.2933H94.8251V45.9723L95.1028 46.1458L111.441 29.7031H112.078V46.6897C112.078 53.5746 112.726 53.9333 113.524 54.13V54.7664C109.301 54.8127 107.669 53.6209 107.669 46.979V39.1915L107.391 39.018L91.0528 55.4607H90.4164V36.7731V36.7847ZM117.806 30.3858H135.706V35.4656H135.07C134.862 34.2622 133.589 34.0539 129.215 34.0539H123.834V46.8633C123.834 53.4589 122.214 54.7896 117.806 54.778V54.1416C118.604 53.9449 119.24 53.5861 119.24 46.7013V36.912C119.24 32.0752 118.905 31.2652 117.806 31.057V30.3858Z" fill="white"/>
<defs>
<radialGradient id="paint0_radial_7_14756" cx="0" cy="0" r="1" gradientUnits="userSpaceOnUse" gradientTransform="translate(30.0494 28.3151) scale(21.4299 21.4299)">
<stop stop-color="#FFF8EB"/>
<stop offset="0.51" stop-color="#F8BA78"/>
<stop offset="1" stop-color="#E10717"/>
</radialGradient>
<radialGradient id="paint1_radial_7_14756" cx="0" cy="0" r="1" gradientUnits="userSpaceOnUse" gradientTransform="translate(29.0111 29.0652) rotate(-72) scale(21.4299 21.4299)">
<stop stop-color="#FAFAED"/>
<stop offset="0.51" stop-color="#BACE0C"/>
<stop offset="1" stop-color="#78B62A"/>
</radialGradient>
<radialGradient id="paint2_radial_7_14756" cx="0" cy="0" r="1" gradientUnits="userSpaceOnUse" gradientTransform="translate(31.1298 29.7828) rotate(144) scale(21.4415 21.4415)">
<stop stop-color="#FFF3E9"/>
<stop offset="0.51" stop-color="#FFD102"/>
<stop offset="1" stop-color="#F19106"/>
</radialGradient>
<radialGradient id="paint3_radial_7_14756" cx="0" cy="0" r="1" gradientUnits="userSpaceOnUse" gradientTransform="translate(30.5365 28.9059) rotate(72) scale(21.4299 21.4299)">
<stop stop-color="#A0D4F4"/>
<stop offset="0.51" stop-color="#5096D1"/>
<stop offset="1" stop-color="#025BA5"/>
</radialGradient>
<radialGradient id="paint4_radial_7_14756" cx="0" cy="0" r="1" gradientUnits="userSpaceOnUse" gradientTransform="translate(29.0257 29.0585) rotate(-72) scale(21.4299 21.4299)">
<stop stop-color="#F8F1E7"/>
<stop offset="0.51" stop-color="#BC9385"/>
<stop offset="1" stop-color="#973D33"/>
</radialGradient>
<radialGradient id="paint5_radial_7_14756" cx="0" cy="0" r="1" gradientUnits="userSpaceOnUse" gradientTransform="translate(30.0442 29.4421) rotate(-144) scale(21.4299)">
<stop stop-color="#F7F2F1"/>
<stop offset="0.51" stop-color="#BDA4A6"/>
<stop offset="1" stop-color="#815D2D"/>
</radialGradient>
<radialGradient id="paint6_radial_7_14756" cx="0" cy="0" r="1" gradientUnits="userSpaceOnUse" gradientTransform="translate(31.1299 29.7822) rotate(144) scale(21.4299 21.4299)">
<stop stop-color="#F5F1E7"/>
<stop offset="0.51" stop-color="#B89E4C"/>
<stop offset="1" stop-color="#985928"/>
</radialGradient>
<radialGradient id="paint7_radial_7_14756" cx="0" cy="0" r="1" gradientUnits="userSpaceOnUse" gradientTransform="translate(30.5366 28.9067) rotate(72) scale(21.4299 21.4299)">
<stop stop-color="#E8E3E2"/>
<stop offset="0.51" stop-color="#A79691"/>
<stop offset="1" stop-color="#323230"/>
</radialGradient>
<radialGradient id="paint8_radial_7_14756" cx="0" cy="0" r="1" gradientUnits="userSpaceOnUse" gradientTransform="translate(30.5365 28.9063) rotate(72) scale(21.4299 21.4299)">
<stop stop-color="#C0CFBC"/>
<stop offset="0.51" stop-color="#929884"/>
<stop offset="1" stop-color="#214A36"/>
</radialGradient>
<radialGradient id="paint9_radial_7_14756" cx="0" cy="0" r="1" gradientUnits="userSpaceOnUse" gradientTransform="translate(30.0442 29.4426) rotate(-144) scale(21.4299)">
<stop stop-color="#F3EDF6"/>
<stop offset="0.51" stop-color="#CCACD2"/>
<stop offset="1" stop-color="#94559C"/>
</radialGradient>
</defs>
</svg>
