<svg width="239" height="44" viewBox="0 0 239 44" fill="none" xmlns="http://www.w3.org/2000/svg">
<path d="M76.3932 24.813H81.2415L81.2068 43.4774H76.3585V40.9665C74.9353 42.9105 72.9912 43.8824 70.5266 43.8824C68.0619 43.8824 66.0254 42.9683 64.417 41.1516C62.8086 39.3349 62.0102 36.9976 62.0102 34.1395C62.0102 31.2814 62.8201 28.9556 64.4401 27.1273C66.0601 25.3106 68.0734 24.3965 70.5034 24.3965C72.9334 24.3965 74.9584 25.4032 76.4048 27.4166V24.8015L76.3932 24.813ZM71.6027 39.2655C72.9797 39.2655 74.1252 38.7911 75.0278 37.8423C75.9304 36.8934 76.3816 35.6553 76.3816 34.1395C76.3816 32.6236 75.9304 31.3855 75.0278 30.4367C74.1252 29.4878 72.9797 29.0134 71.6027 29.0134C70.2257 29.0134 69.0917 29.4878 68.2123 30.4367C67.3329 31.3855 66.8932 32.6236 66.8932 34.1395C66.8932 35.6553 67.3445 36.8934 68.2355 37.8423C69.1265 38.7911 70.2604 39.2655 71.6143 39.2655H71.6027Z" fill="white"/>
<path d="M101.723 24.8135V43.4779H96.8743V29.3957H88.867V43.4779H84.0187V24.8135H101.734H101.723Z" fill="white"/>
<path d="M120.85 24.8135V29.3957H115.076V43.4779H110.228V29.3957H104.488V24.8135H120.85Z" fill="white"/>
<path d="M132.467 24.3965C135.522 24.3965 137.941 25.4495 139.711 27.5554C141.481 29.6614 142.245 32.2765 142.002 35.4007H127.677C127.839 36.8471 128.36 37.958 129.239 38.7217C130.118 39.4854 131.218 39.8788 132.525 39.8788C133.474 39.8788 134.319 39.6705 135.071 39.2539C135.823 38.8374 136.344 38.2588 136.668 37.5414H141.69C141.03 39.6474 139.885 41.2326 138.23 42.2972C136.575 43.3617 134.689 43.894 132.56 43.894C129.667 43.894 127.295 42.9799 125.467 41.1401C123.639 39.3118 122.713 36.986 122.713 34.1857C122.713 31.3855 123.627 29.0481 125.467 27.1967C127.295 25.3453 129.633 24.4081 132.456 24.4081L132.467 24.3965ZM132.433 28.4001C131.276 28.4001 130.315 28.7126 129.552 29.3374C128.788 29.9622 128.244 30.7954 127.92 31.8368H136.841C136.575 30.7954 136.055 29.9622 135.279 29.3374C134.516 28.7126 133.555 28.4001 132.433 28.4001Z" fill="white"/>
<path d="M163.305 43.4779H157.091L149.454 35.3317V43.4779H144.606V24.8135H149.454V32.5893L156.547 24.8135H162.726L154.21 33.7002L163.305 43.4779Z" fill="white"/>
<path d="M176.878 24.813H181.726L181.691 43.4774H176.843V40.9665C175.42 42.9105 173.476 43.8824 171.011 43.8824C168.547 43.8824 166.51 42.9683 164.902 41.1516C163.293 39.3349 162.495 36.9976 162.495 34.1395C162.495 31.2814 163.305 28.9556 164.925 27.1273C166.545 25.3106 168.558 24.3965 170.988 24.3965C173.418 24.3965 175.443 25.4032 176.889 27.4166V24.8015L176.878 24.813ZM172.087 39.2655C173.464 39.2655 174.61 38.7911 175.512 37.8423C176.415 36.8934 176.866 35.6553 176.866 34.1395C176.866 32.6236 176.415 31.3855 175.512 30.4367C174.61 29.4878 173.464 29.0134 172.087 29.0134C170.71 29.0134 169.576 29.4878 168.697 30.4367C167.818 31.3855 167.378 32.6236 167.378 34.1395C167.378 35.6553 167.829 36.8934 168.72 37.8423C169.611 38.7911 170.745 39.2655 172.099 39.2655H172.087Z" fill="white"/>
<path d="M235.023 4.41302C230.522 -0.0881928 223.221 -0.0881928 218.719 4.41302L212.98 10.1523L207.241 4.41302C202.74 -0.0881928 195.438 -0.0881928 190.937 4.41302C186.436 8.91422 186.436 16.2157 190.937 20.7169L196.676 26.4562L212.98 42.7601L235.012 20.7284C239.513 16.2272 239.513 8.9258 235.012 4.42459" fill="#E75218"/>
<path d="M17.5072 14.4336C17.5072 18.2637 14.0474 20.2076 9.16436 20.2076C3.08947 20.2076 0.682672 17.3611 -3.05176e-05 13.5195H4.91774C5.28802 15.7296 6.6187 16.5048 9.06023 16.5048C11.5018 16.5048 12.5895 15.6254 12.5895 14.098C12.5895 12.9756 12.0456 12.0962 9.87023 12.0962H6.74598V8.35869H9.36109C11.3976 8.35869 12.0109 7.7107 12.0109 6.53044C12.0109 5.24603 11.2009 4.32033 8.81724 4.32033C7.15098 4.32033 5.65827 4.79475 5.28799 6.72715H0.370222C0.983497 3.42935 3.21676 0.72168 8.88667 0.72168C13.573 0.72168 16.894 2.61936 16.894 6.1833C16.894 8.08098 15.9451 9.23811 14.5913 9.92081C16.4195 10.6729 17.5072 12.2582 17.5072 14.4336Z" fill="white"/>
<path d="M42.2465 15.2091V24.5124H37.3982V19.7913H23.3855V24.5124H18.5371V15.2091H21.858C22.506 14.6653 22.911 13.5776 23.2119 11.6799L24.9129 1.12695H38.8562V15.2091H42.2465ZM33.9963 15.2091V5.70916H29.0438L28.0255 11.9229C27.7825 13.4503 27.447 14.4686 26.9725 15.2091H33.9963Z" fill="white"/>
<path d="M63.5144 10.4647C63.5144 16.204 59.8463 20.2076 54.998 20.2076C52.3482 20.2076 50.4157 19.0505 49.0966 17.2917V28.2843H44.2484V1.12667H49.0966V3.74177C50.381 1.94823 52.3829 0.72168 54.998 0.72168C59.7885 0.72168 63.5144 4.69061 63.5144 10.4647ZM58.5966 10.4647C58.5966 7.40985 56.5948 5.3386 53.8756 5.3386C51.1563 5.3386 49.0851 7.40985 49.0851 10.4647C49.0851 13.5195 51.1563 15.5907 53.8756 15.5907C56.5948 15.5907 58.5966 13.5542 58.5966 10.4647Z" fill="white"/>
<path d="M84.5741 1.12652L84.5393 19.7909H79.691V17.28C78.4066 19.0504 76.4626 20.1959 73.8591 20.1959C68.976 20.1959 65.3427 16.1923 65.3427 10.4529C65.3427 4.71361 69.0455 0.709961 73.8244 0.709961C76.4742 0.709961 78.4413 1.93651 79.7257 3.73005V1.11495H84.5741V1.12652ZM79.7257 10.4645C79.7257 7.4097 77.6544 5.33845 74.9352 5.33845C72.216 5.33845 70.2141 7.4097 70.2141 10.4645C70.2141 13.5193 72.2507 15.5906 74.9352 15.5906C77.6197 15.5906 79.7257 13.554 79.7257 10.4645Z" fill="white"/>
<path d="M103.586 14.3992C103.586 18.2292 100.635 19.7913 96.7933 19.7913H86.9115V1.12695H95.937C99.6745 1.12695 102.625 2.11051 102.625 5.84802C102.625 7.78041 101.607 8.79868 100.218 9.71281C102.394 10.3608 103.574 12.0155 103.574 14.3992M95.532 4.93389H91.7598V8.53254H95.532C97.1982 8.53254 97.7421 7.91927 97.7421 6.76214C97.7421 5.53559 97.1982 4.93389 95.532 4.93389ZM98.6562 13.9594C98.6562 12.6403 98.0429 11.9923 96.4114 11.9923H91.7598V15.996H96.4114C98.1124 15.996 98.6562 15.3133 98.6562 13.9594Z" fill="white"/>
<path d="M105.009 10.4647C105.009 4.93361 109.117 0.72168 114.752 0.72168C119.299 0.72168 123.338 3.47563 124.055 8.21984H119.068C118.489 6.1833 116.731 5.19975 114.763 5.19975C111.813 5.19975 109.915 7.37514 109.95 10.4647C109.915 13.5889 111.882 15.7296 114.74 15.7296C116.742 15.7296 118.513 14.7113 119.08 12.6748H124.067C123.315 17.5925 119.218 20.2076 114.729 20.2076C109.128 20.2076 105.02 15.9957 105.02 10.4647" fill="white"/>
<path d="M143.842 1.12695V19.7913H138.994V13.1726L139.294 7.64156L131.6 19.7913H125.999V1.12695H130.847V7.7457L130.616 13.2073L138.276 1.12695H143.842Z" fill="white"/>
<path d="M162.171 5.70916H156.397V19.7913H151.548V5.70916H145.809V1.12695H156.397H162.171V5.70916Z" fill="white"/>
<path d="M181.923 1.12695V19.7913H177.075V13.1726L177.375 7.64156L169.669 19.7913H164.068V1.12695H168.928V7.7457L168.685 13.2073L176.357 1.12695H181.923Z" fill="white"/>
<path d="M196.688 26.4445L190.948 20.7052C186.447 16.204 186.447 8.90251 190.948 4.4013C195.45 -0.0999116 202.751 -0.0999116 207.252 4.4013L212.992 10.1406L196.688 26.4445Z" fill="#ED8056"/>
</svg>
