<svg width="150" height="70" viewBox="0 0 150 70" fill="none" xmlns="http://www.w3.org/2000/svg">
<path d="M149.087 39.4072H132.075V56.2267H121.791V39.4072H104.779V29.7961H121.791V12.9766H132.075V29.7961H149.087V39.4072Z" fill="white" fill-opacity="0.5"/>
<path d="M83.6978 32.8701C87.2219 34.4719 89.9131 36.6505 91.7713 39.4057C93.6935 42.0968 94.6545 45.2685 94.6545 48.9207C94.6545 53.0214 93.5011 56.6096 91.1945 59.6852C88.9519 62.7607 85.7482 65.1315 81.5833 66.7974C77.4185 68.3993 72.581 69.2002 67.0706 69.2002C61.5602 69.2002 56.7226 68.3993 52.5578 66.7974C48.4571 65.1315 45.2853 62.7607 43.0427 59.6852C40.8001 56.6096 39.6788 53.0214 39.6788 48.9207C39.6788 45.2685 40.6079 42.0968 42.4661 39.4057C44.3242 36.6505 46.9833 34.4719 50.4433 32.8701C47.7522 31.3964 45.6697 29.4742 44.196 27.1034C42.7864 24.6686 42.0816 21.8814 42.0816 18.7417C42.0816 14.9613 43.1068 11.6615 45.1572 8.84225C47.2716 6.02298 50.219 3.84445 53.9994 2.30667C57.7798 0.76889 62.1369 0 67.0706 0C72.0684 0 76.4574 0.76889 80.2378 2.30667C84.0182 3.84445 86.9656 6.02298 89.08 8.84225C91.1945 11.6615 92.2517 14.9613 92.2517 18.7417C92.2517 21.8814 91.5149 24.6366 90.0412 27.0073C88.5675 29.378 86.453 31.3323 83.6978 32.8701ZM67.0706 9.80336C63.162 9.80336 60.0544 10.6363 57.7478 12.3023C55.5052 13.9682 54.3838 16.3069 54.3838 19.3184C54.3838 22.2017 55.5052 24.5084 57.7478 26.2384C60.0544 27.9043 63.162 28.7373 67.0706 28.7373C71.0432 28.7373 74.1828 27.9043 76.4894 26.2384C78.7961 24.5084 79.9495 22.2017 79.9495 19.3184C79.9495 16.3069 78.7641 13.9682 76.3934 12.3023C74.0867 10.6363 70.9791 9.80336 67.0706 9.80336ZM67.0706 59.3968C71.6839 59.3968 75.3361 58.4357 78.0273 56.5135C80.7184 54.5913 82.0639 51.9322 82.0639 48.5362C82.0639 45.2044 80.7184 42.5773 78.0273 40.6551C75.3361 38.7329 71.6839 37.7718 67.0706 37.7718C62.4572 37.7718 58.837 38.7329 56.2099 40.6551C53.5829 42.5773 52.2695 45.2044 52.2695 48.5362C52.2695 51.9322 53.5829 54.5913 56.2099 56.5135C58.837 58.4357 62.4572 59.3968 67.0706 59.3968Z" fill="white" fill-opacity="0.5"/>
<path d="M26.719 0.962891V68.2409H14.2244V11.439H0V0.962891H26.719Z" fill="white" fill-opacity="0.5"/>
</svg>
